<?xml version="1.0" encoding="UTF-8"?>
<svg xmlns="http://www.w3.org/2000/svg" xmlns:xlink="http://www.w3.org/1999/xlink" viewBox="0 0 931.06 910.53">
  <defs>
    <style>
      .cls-1 {
        fill: none;
      }

      .cls-2 {
        fill: #c14990;
      }

      .cls-3 {
        fill: url(#linear-gradient-8);
      }

      .cls-4 {
        fill: url(#linear-gradient-7);
      }

      .cls-5 {
        fill: url(#linear-gradient-5);
      }

      .cls-6 {
        fill: url(#linear-gradient-6);
      }

      .cls-7 {
        fill: url(#linear-gradient-9);
      }

      .cls-8 {
        fill: url(#linear-gradient-4);
      }

      .cls-9 {
        fill: url(#linear-gradient-3);
      }

      .cls-10 {
        fill: url(#linear-gradient-2);
      }

      .cls-11 {
        fill: url(#radial-gradient);
      }

      .cls-12 {
        fill: url(#linear-gradient);
      }

      .cls-13 {
        isolation: isolate;
      }

      .cls-14 {
        fill: #323d5f;
      }

      .cls-15 {
        fill: #e48387;
        mix-blend-mode: multiply;
        opacity: .5;
      }

      .cls-16 {
        fill: #1b2a2b;
      }

      .cls-17 {
        fill: url(#linear-gradient-43);
      }

      .cls-18 {
        fill: url(#linear-gradient-40);
      }

      .cls-19 {
        fill: url(#linear-gradient-41);
      }

      .cls-20 {
        fill: url(#linear-gradient-42);
      }

      .cls-21 {
        fill: url(#linear-gradient-49);
      }

      .cls-22 {
        fill: url(#linear-gradient-48);
      }

      .cls-23 {
        fill: url(#linear-gradient-45);
      }

      .cls-24 {
        fill: url(#linear-gradient-47);
      }

      .cls-25 {
        fill: url(#linear-gradient-44);
      }

      .cls-26 {
        fill: url(#linear-gradient-46);
      }

      .cls-27 {
        fill: url(#linear-gradient-10);
      }

      .cls-28 {
        fill: url(#linear-gradient-11);
      }

      .cls-29 {
        fill: url(#linear-gradient-12);
      }

      .cls-30 {
        fill: url(#linear-gradient-13);
      }

      .cls-31 {
        fill: url(#linear-gradient-19);
      }

      .cls-32 {
        fill: url(#linear-gradient-14);
      }

      .cls-33 {
        fill: url(#linear-gradient-21);
      }

      .cls-34 {
        fill: url(#linear-gradient-20);
      }

      .cls-35 {
        fill: url(#linear-gradient-22);
      }

      .cls-36 {
        fill: url(#linear-gradient-23);
      }

      .cls-37 {
        fill: url(#linear-gradient-28);
      }

      .cls-38 {
        fill: url(#linear-gradient-25);
      }

      .cls-39 {
        fill: url(#linear-gradient-32);
      }

      .cls-40 {
        fill: url(#linear-gradient-31);
      }

      .cls-41 {
        fill: url(#linear-gradient-33);
      }

      .cls-42 {
        fill: url(#linear-gradient-30);
      }

      .cls-43 {
        fill: url(#linear-gradient-15);
      }

      .cls-44 {
        fill: url(#linear-gradient-16);
      }

      .cls-45 {
        fill: url(#linear-gradient-17);
      }

      .cls-46 {
        fill: url(#linear-gradient-18);
      }

      .cls-47 {
        fill: url(#linear-gradient-35);
      }

      .cls-48 {
        fill: url(#linear-gradient-34);
      }

      .cls-49 {
        fill: url(#linear-gradient-36);
      }

      .cls-50 {
        fill: url(#linear-gradient-38);
      }

      .cls-51 {
        fill: url(#linear-gradient-27);
      }

      .cls-52 {
        fill: url(#linear-gradient-24);
      }

      .cls-53 {
        fill: url(#linear-gradient-26);
      }

      .cls-54 {
        fill: url(#linear-gradient-29);
      }

      .cls-55 {
        fill: url(#linear-gradient-37);
      }

      .cls-56 {
        fill: url(#linear-gradient-39);
      }

      .cls-57 {
        fill: url(#linear-gradient-53);
      }

      .cls-58 {
        fill: url(#linear-gradient-50);
      }

      .cls-59 {
        fill: url(#linear-gradient-51);
      }

      .cls-60 {
        fill: url(#linear-gradient-52);
      }

      .cls-61 {
        fill: #b0ce69;
      }

      .cls-62 {
        clip-path: url(#clippath);
      }
    </style>
    <clipPath id="clippath">
      <rect class="cls-1" x="90.53" width="750" height="500"/>
    </clipPath>
    <linearGradient id="linear-gradient" x1="581.66" y1="254.18" x2="526.55" y2="263.6" gradientUnits="userSpaceOnUse">
      <stop offset="0" stop-color="#b2cf69"/>
      <stop offset="1" stop-color="#4b8492"/>
    </linearGradient>
    <linearGradient id="linear-gradient-2" x1="496.24" y1="190.5" x2="525.36" y2="241.89" xlink:href="#linear-gradient"/>
    <linearGradient id="linear-gradient-3" x1="495.37" y1="248.42" x2="570.38" y2="248.42" gradientUnits="userSpaceOnUse">
      <stop offset="0" stop-color="#375c6c"/>
      <stop offset="1" stop-color="#4b8492"/>
    </linearGradient>
    <linearGradient id="linear-gradient-4" x1="514.93" y1="190.1" x2="609.85" y2="190.1" gradientUnits="userSpaceOnUse">
      <stop offset="0" stop-color="#9c433c"/>
      <stop offset="1" stop-color="#c65647"/>
    </linearGradient>
    <linearGradient id="linear-gradient-5" x1="527.16" y1="186.09" x2="554.08" y2="186.09" gradientUnits="userSpaceOnUse">
      <stop offset="0" stop-color="#ecb82f"/>
      <stop offset="1" stop-color="#e07f3d"/>
    </linearGradient>
    <linearGradient id="linear-gradient-6" x1="550.84" y1="180.78" x2="589.23" y2="180.78" xlink:href="#linear-gradient-5"/>
    <linearGradient id="linear-gradient-7" x1="560.09" y1="201.28" x2="598.18" y2="201.28" xlink:href="#linear-gradient-5"/>
    <linearGradient id="linear-gradient-8" x1="563.09" y1="219.04" x2="599.03" y2="219.04" xlink:href="#linear-gradient-5"/>
    <linearGradient id="linear-gradient-9" x1="532.8" y1="206.61" x2="579.05" y2="206.61" xlink:href="#linear-gradient-3"/>
    <linearGradient id="linear-gradient-10" x1="397.41" y1="250.67" x2="489.33" y2="250.67" xlink:href="#linear-gradient-5"/>
    <linearGradient id="linear-gradient-11" x1="399.38" y1="310.53" x2="427.01" y2="312.31" gradientTransform="translate(-26.46 54.1) rotate(-7.49)" xlink:href="#linear-gradient"/>
    <linearGradient id="linear-gradient-12" x1="373.27" y1="171.94" x2="371.56" y2="233.9" gradientTransform="translate(-26.46 54.1) rotate(-7.49)" xlink:href="#linear-gradient"/>
    <radialGradient id="radial-gradient" cx="413.32" cy="283.22" fx="413.32" fy="283.22" r="41.97" gradientTransform="translate(-26.46 54.1) rotate(-7.49)" gradientUnits="userSpaceOnUse">
      <stop offset="0" stop-color="#4b8492"/>
      <stop offset="1" stop-color="#b2cf69"/>
    </radialGradient>
    <linearGradient id="linear-gradient-13" x1="355.58" y1="252.66" x2="436.5" y2="252.66" gradientTransform="translate(-26.46 54.1) rotate(-7.49)" xlink:href="#linear-gradient-3"/>
    <linearGradient id="linear-gradient-14" x1="458.34" y1="275.46" x2="542.33" y2="275.46" xlink:href="#linear-gradient-4"/>
    <linearGradient id="linear-gradient-15" x1="345.62" y1="312.41" x2="354.96" y2="312.41" xlink:href="#linear-gradient-5"/>
    <linearGradient id="linear-gradient-16" x1="342.74" y1="295.52" x2="349.52" y2="295.52" xlink:href="#linear-gradient-5"/>
    <linearGradient id="linear-gradient-17" x1="325.8" y1="291.72" x2="330.52" y2="291.72" xlink:href="#linear-gradient-5"/>
    <linearGradient id="linear-gradient-18" x1="576.56" y1="285.39" x2="587.85" y2="285.39" xlink:href="#linear-gradient-5"/>
    <linearGradient id="linear-gradient-19" x1="593.57" y1="279.92" x2="598.92" y2="279.92" xlink:href="#linear-gradient-5"/>
    <linearGradient id="linear-gradient-20" x1="485.92" y1="163.55" x2="496.81" y2="163.55" xlink:href="#linear-gradient-5"/>
    <linearGradient id="linear-gradient-21" x1="499.99" y1="149.65" x2="504.44" y2="149.65" xlink:href="#linear-gradient-5"/>
    <linearGradient id="linear-gradient-22" x1="463.13" y1="163.93" x2="467.82" y2="163.93" xlink:href="#linear-gradient-5"/>
    <linearGradient id="linear-gradient-23" x1="460.14" y1="282" x2="464.15" y2="282" gradientUnits="userSpaceOnUse">
      <stop offset="0" stop-color="#492533"/>
      <stop offset="1" stop-color="#6a3649"/>
    </linearGradient>
    <linearGradient id="linear-gradient-24" x1="408.68" y1="290.82" x2="408.71" y2="290.82" xlink:href="#linear-gradient-23"/>
    <linearGradient id="linear-gradient-25" x1="408.62" y1="290.84" x2="408.62" y2="290.84" xlink:href="#linear-gradient-23"/>
    <linearGradient id="linear-gradient-26" x1="403.63" y1="292.34" x2="403.77" y2="292.34" xlink:href="#linear-gradient-23"/>
    <linearGradient id="linear-gradient-27" x1="267.41" y1="413.78" x2="711.82" y2="413.78" xlink:href="#linear-gradient-23"/>
    <linearGradient id="linear-gradient-28" x1="366.06" y1="311.75" x2="393.15" y2="311.75" xlink:href="#linear-gradient-23"/>
    <linearGradient id="linear-gradient-29" x1="393.27" y1="295.32" x2="398.81" y2="295.32" xlink:href="#linear-gradient-23"/>
    <linearGradient id="linear-gradient-30" x1="390.26" y1="295.32" x2="406.45" y2="295.32" xlink:href="#linear-gradient-23"/>
    <linearGradient id="linear-gradient-31" x1="393.98" y1="297.84" x2="394" y2="297.84" xlink:href="#linear-gradient-23"/>
    <linearGradient id="linear-gradient-32" x1="393.76" y1="295.25" x2="402.45" y2="295.25" xlink:href="#linear-gradient-23"/>
    <linearGradient id="linear-gradient-33" x1="395.82" y1="292.34" x2="414.23" y2="292.34" xlink:href="#linear-gradient-23"/>
    <linearGradient id="linear-gradient-34" x1="567.87" y1="345.4" x2="637.02" y2="345.4" xlink:href="#linear-gradient-23"/>
    <linearGradient id="linear-gradient-35" x1="329.44" y1="358.97" x2="391.12" y2="358.97" xlink:href="#linear-gradient-23"/>
    <linearGradient id="linear-gradient-36" x1="474.1" y1="411.62" x2="474.1" y2="599.46" xlink:href="#linear-gradient-23"/>
    <linearGradient id="linear-gradient-37" x1="319.51" y1="447.22" x2="380.83" y2="447.22" xlink:href="#linear-gradient-23"/>
    <linearGradient id="linear-gradient-38" x1="572.66" y1="432.95" x2="608.36" y2="432.95" xlink:href="#linear-gradient-23"/>
    <linearGradient id="linear-gradient-39" x1="615.68" y1="500.06" x2="638.67" y2="500.06" xlink:href="#linear-gradient-23"/>
    <linearGradient id="linear-gradient-40" x1="435.25" y1="491.19" x2="517" y2="491.19" gradientUnits="userSpaceOnUse">
      <stop offset="0" stop-color="#f0c7ab"/>
      <stop offset="1" stop-color="#e38680"/>
    </linearGradient>
    <linearGradient id="linear-gradient-41" x1="369.14" y1="379.48" x2="581.65" y2="379.48" xlink:href="#linear-gradient-40"/>
    <linearGradient id="linear-gradient-42" x1="384.63" y1="326.08" x2="560.13" y2="326.08" xlink:href="#linear-gradient-23"/>
    <linearGradient id="linear-gradient-43" x1="420.21" y1="308.99" x2="510.29" y2="308.99" xlink:href="#linear-gradient-23"/>
    <linearGradient id="linear-gradient-44" x1="503.1" y1="324.24" x2="548.35" y2="324.24" xlink:href="#linear-gradient-23"/>
    <linearGradient id="linear-gradient-45" x1="397.34" y1="315.24" x2="504.51" y2="315.24" xlink:href="#linear-gradient-23"/>
    <linearGradient id="linear-gradient-46" x1="512.74" y1="314.06" x2="559.84" y2="314.06" xlink:href="#linear-gradient-23"/>
    <linearGradient id="linear-gradient-47" x1="462.69" y1="282.49" x2="495.45" y2="282.49" xlink:href="#linear-gradient-23"/>
    <linearGradient id="linear-gradient-48" x1="453.23" y1="365.62" x2="477.23" y2="365.62" xlink:href="#linear-gradient-23"/>
    <linearGradient id="linear-gradient-49" x1="422.23" y1="380.98" x2="450.05" y2="380.98" xlink:href="#linear-gradient-23"/>
    <linearGradient id="linear-gradient-50" x1="416.76" y1="342.42" x2="456.48" y2="342.42" xlink:href="#linear-gradient-23"/>
    <linearGradient id="linear-gradient-51" x1="499.65" y1="379.13" x2="527.47" y2="379.13" xlink:href="#linear-gradient-23"/>
    <linearGradient id="linear-gradient-52" x1="493.22" y1="340.56" x2="532.94" y2="340.56" xlink:href="#linear-gradient-23"/>
    <linearGradient id="linear-gradient-53" x1="458.79" y1="409.36" x2="496.37" y2="409.36" xlink:href="#linear-gradient-23"/>
  </defs>
  <g class="cls-13">
    <g id="OBJECTS">
      <g class="cls-62">
        <g>
          <g>
            <g>
              <path class="cls-12" d="M565.08,244.19c-3.63,0-7.36.55-11.06,1.63-6.63,1.95-13.02,5.67-19,11.07-5.28,4.78-9.94,10.69-13.84,17.57-.05.08-.05.18-.02.28.03.11.11.2.2.25.05.03.11.04.17.04.14,0,.28-.08.36-.22.17-.31.35-.62.53-.92.2.36.44.52.71.57.07.01.13.02.19.02.2,0,.38-.07.59-.17.16-.08.33-.17.48-.24,2.73-1.32,5.82-2.32,9.18-2.97l-.31.02c4.81-.87,9.6-.99,13.24-.99,2,0,4.01.04,6.01.08,1.99.04,3.96.08,5.91.08h.41c4.99,0,9.04-.34,12.74-1.04,1.91-.36,3.57-.83,5.07-1.42,1.43-.56,2.73-1.24,3.86-2,1.44-.97,3.34-2.66,4.23-5.17.34-.94.5-1.94.5-2.97,0-.91-.18-1.88-.52-2.89-.64-1.9-1.91-3.74-3.67-5.32-1.81-1.63-4.06-2.93-6.68-3.84-1.35-.47-2.8-.84-4.29-1.08-1.49-.25-3.12-.37-4.98-.37"/>
              <path class="cls-10" d="M494.6,176.92h-.02c-3.27,0-6.51,1.08-9.11,3.03-1.31.98-2.47,2.25-3.46,3.77-.47.73-.9,1.53-1.27,2.38-.35.8-.65,1.72-.92,2.8-.82,3.28-.57,7,.72,11.04.55,1.7,1.31,3.43,2.35,5.27.91,1.61,1.99,3.21,3.2,4.73,1.09,1.36,2.35,2.69,3.75,3.95,1.21,1.09,2.49,2.08,4.04,3.23,3.04,2.26,6.3,4.31,9.45,6.3,2.45,1.55,4.99,3.16,7.41,4.84,3.27,2.28,5.96,4.51,8.23,6.82h0c2.03,2.08,3.82,4.43,5.25,6.9,1.37,2.45,2.43,5.02,3.17,7.69.05.18.23.26.39.26,0,0,.15-.03.15-.03.21-.08.3-.29.23-.54-.17-.62-.35-1.23-.56-1.83h.01c.54,0,1.02-.43,1.08-.97.39-3.11.64-6.02.75-8.9.12-3.12.1-6.33-.06-9.54-.34-6.76-1.38-13.24-3.08-19.26-1.85-6.53-4.53-12.31-7.98-17.19-1.79-2.54-3.86-4.87-6.16-6.93-2.29-2.06-4.89-3.84-7.75-5.3-.69-.36-1.4-.69-2.12-.99-.75-.32-1.57-.59-2.65-.89-1.56-.44-3.21-.65-5.05-.66"/>
              <g>
                <path class="cls-14" d="M532.91,243.97s.02-.04.03-.07c0,.02-.01.03-.02.05,0,0,0,.01,0,.02Z"/>
                <path class="cls-14" d="M532.94,243.91c.03-.08.07-.16.1-.25-.03.07-.06.13-.08.2l-.02.05Z"/>
                <path class="cls-14" d="M519.81,223.22c.03.08.07.16.1.24,0,0,0-.01,0-.02-.03-.08-.07-.15-.1-.22Z"/>
                <path class="cls-9" d="M570.37,254.88c-.05-.23-.25-.35-.47-.35-.03,0-.05,0-.08,0-6.28.92-12.57,1.81-18.77,3.19-1.68.37-3.35.76-5.01,1.2-1.65.44-3.29.95-4.91,1.5-3.22,1.09-6.37,2.39-9.32,4.08-1.05.6-2.07,1.27-3.06,1.98-1.05.75-2.06,1.54-3.01,2.41-.07.07-.13.14-.21.21.56-2.89,1.2-5.76,1.92-8.61.72-2.88,1.52-5.75,2.45-8.57.89-2.7,1.93-5.35,3.02-7.97.01-.03.03-.07.04-.1l.1-.25s-.01.04-.02.06c1.83-4.29,3.89-8.47,6.22-12.52,2.39-4.16,5.09-8.16,8.01-11.97,1.99-2.57,4.07-5.06,6.28-7.44.33-.36.35-.91,0-1.26-.17-.17-.41-.26-.64-.26s-.46.08-.62.26c-2.93,3.14-5.71,6.4-8.34,9.81-2.61,3.38-5.01,6.93-7.28,10.55-2.26,3.6-4.31,7.33-6.2,11.14-.52,1.05-1.02,2.11-1.5,3.18-.16-1.56-.35-3.11-.61-4.65-.61-3.66-1.57-7.25-2.82-10.74-1.23-3.42-2.74-6.74-4.49-9.92-1.73-3.12-3.68-6.15-5.79-9.03-2.78-3.79-5.75-7.45-8.88-10.96-1.63-1.84-3.32-3.63-5.03-5.41-1.76-1.84-3.55-3.66-5.36-5.46-.08-.08-.16-.11-.25-.11-.29,0-.55.38-.28.65,2.36,2.34,4.68,4.74,6.9,7.21,2.14,2.37,4.18,4.82,6.14,7.34l-.03-.04c1.15,1.49,2.26,3,3.32,4.55,1.05,1.55,2.04,3.15,3,4.77.94,1.6,1.85,3.22,2.69,4.88.82,1.64,1.59,3.31,2.31,5,0-.02-.02-.05-.03-.07.04.1.08.2.13.3v.03s0,0,0-.01c1.48,3.55,2.72,7.19,3.72,10.91,1.1,4.07,1.89,8.22,2.46,12.39.18,1.34.33,2.68.48,4.02-.41,1.02-.82,2.04-1.22,3.06-3.11,7.94-5.26,16.21-6.46,24.64-.62,4.38-1.01,8.76-1.13,13.18-.07,2.14-.06,4.27,0,6.4.07,2.14.19,4.29.45,6.41.07.63.16,1.25.27,1.88.11.37.3.7.57.98.42.41.98.65,1.57.65,1.22,0,2.2-1.01,2.22-2.22.05-2.39-.06-4.79-.07-7.18,0-2.39.04-4.78.14-7.17.19-4.59.6-9.17,1.19-13.72.1-.7.21-1.4.32-2.11.02-.02.05-.05.07-.07.32-.36.63-.72.95-1.08.61-.69,1.23-1.35,1.88-2.01,1.37-1.37,2.84-2.64,4.4-3.78,2.01-1.43,4.13-2.71,6.32-3.85,2.39-1.25,4.85-2.32,7.37-3.29,4.14-1.56,8.38-2.83,12.7-3.82,3.94-.91,7.92-1.64,11.92-2.24.25-.04.4-.32.34-.55Z"/>
              </g>
            </g>
            <path class="cls-8" d="M556.21,142.33c-.41,0-.81.03-1.21.09-1.29.18-2.6.72-3.78,1.56-2.92,2.07-4.37,5.36-5.08,7.75-1.2,4.05-.74,8.35-.21,11.65.39,2.41,1.02,4.95,2.04,8.25.68,2.18,1.45,4.38,2.19,6.42-1.21-2.59-2.62-5.08-4.16-7.4-.83-1.27-1.71-2.49-2.63-3.62-.68-.85-1.53-1.81-2.67-3.02-2.28-2.4-4.67-4.5-7.11-6.24-1.33-.94-2.69-1.75-4.03-2.39-1.3-.64-2.68-1.11-4.1-1.39-.74-.12-1.36-.18-1.89-.18-.71,0-1.42.08-2.1.25-1.19.27-2.34.81-3.42,1.63-1.33.99-2.32,2.35-2.78,3.81-.43,1.42-.44,3.01-.03,4.73.38,1.58,1.09,3.25,2.19,5.1,1.02,1.74,2.28,3.53,3.87,5.46,1.35,1.64,3,3.43,5.04,5.5,4.03,4.05,8.26,7.78,11.88,10.89l2.71,2.32c2.74,2.34,5.32,4.55,7.84,6.87l.18.1.55.57.21.21c.69.66,1.37,1.33,2.03,2.03l.17.17c.11.11.21.22.31.34-.19.21-.24.48-.16.77.08.25.26.46.49.57,1.31.68,2.69,1.47,4.35,2.5,1.34.82,2.65,1.69,4.01,2.63,3.21,2.28,6.44,4.86,9.86,7.9,1.62,1.44,3.21,2.91,4.78,4.4l.25.23c1.13,1.06,2.53,2.37,3.84,3.71l1.09,1.11.11.11.11.11c2.02,2.05,4.12,4.18,6.45,5.98,1.56,1.22,3.04,2.13,4.49,2.79.71.34,1.49.62,2.31.84.8.22,1.65.35,2.6.4.14,0,.27,0,.41,0,.57,0,1.2-.06,2.05-.2.95-.18,1.76-.43,2.48-.75,1.39-.6,2.56-1.54,3.36-2.71.76-1.09,1.23-2.44,1.36-3.91.14-1.47-.04-3.04-.55-4.78-.37-1.22-.9-2.46-1.65-3.77-.57-1.03-1.33-2.1-2.26-3.2-1.64-1.91-3.72-3.65-6.17-5.19-1.59-1-3.35-1.9-5.39-2.77.06.01.12.01.18.01.58,0,1.16-.02,1.74-.06,2.13-.15,4.3-.5,6.43-1.04,1.77-.44,3.38-1.02,4.78-1.71.59-.28,1.18-.61,1.81-1,.53-.34,1.04-.73,1.56-1.18,1.66-1.43,2.69-3.26,2.88-5.15.09-.86,0-1.76-.26-2.68-.25-.83-.67-1.67-1.28-2.5-1.16-1.59-2.91-2.94-5.06-3.91-2.27-1.03-4.84-1.56-7.67-1.57-5.49,0-10.62,2.29-14.01,4,1.06-.79,2.23-1.94,3.7-3.57,2.63-2.93,4.91-5.93,6.8-8.94,2.43-3.87,3.97-7.4,4.69-10.81.38-1.85.46-3.71.24-5.52-.08-.76-.27-1.58-.59-2.6-.29-.89-.67-1.73-1.12-2.48-.8-1.4-1.86-2.47-3.12-3.19-.56-.33-1.16-.56-1.88-.74-.54-.16-1.16-.23-1.89-.23h-.33c-.67.03-1.38.16-2.18.39-.76.19-1.58.52-2.51,1.01-1.17.6-2.34,1.39-3.47,2.34-2.78,2.37-5.08,5.74-7.03,10.31-.54-7.56-2.48-14.09-5.74-19.4-1.04-1.69-2.18-3.18-3.39-4.41-.61-.62-1.3-1.2-2.1-1.78-.63-.45-1.37-.84-2.31-1.23-.97-.4-2.04-.6-3.11-.6"/>
            <path class="cls-5" d="M529.61,166.32c-.3,0-.57.05-.82.14-.3.11-.55.27-.79.49-.27.26-.43.59-.55.88-.1.24-.17.5-.22.84-.06.44-.08.88-.06,1.35.02.51.1,1.03.17,1.53.1.66.24,1.31.4,1.95.33,1.29.85,2.59,1.61,3.99,1.22,2.27,2.91,4.25,4.07,5.54,1.65,1.83,3.45,3.51,5.31,5.22.6.55,1.21,1.11,1.82,1.66,3.13,2.85,6.37,5.79,9.02,9.18.12.63.2,1.21.3,1.8.06.2.15.35.28.48.2.21.48.32.77.32.15,0,.28-.03.4-.08.57.96,1.05,1.89,1.45,2.81.12.29.28.69.42,1.09.07.2.24.33.43.33.24-.05.34-.13.4-.25.05-.1.07-.22.03-.32-.52-1.45-1.22-2.91-2.1-4.33.05-.12.07-.24.05-.35-.55-4.83-1.55-9.44-2.98-13.72-.36-1.07-.73-1.94-1.17-2.74-.37-.68-.8-1.38-1.4-2.27-1.15-1.7-2.52-3.49-4.18-5.45-1.6-1.91-3.26-3.68-4.92-5.26-.82-.78-1.63-1.49-2.43-2.13-.82-.66-1.58-1.2-2.32-1.65-.74-.44-1.4-.74-2.04-.91-.33-.09-.66-.14-.96-.14"/>
            <path class="cls-6" d="M558.75,155.28c-1.01,0-2.11.35-3.27,1.03-1.27.73-2.28,2.03-3.09,3.95-.86,2.07-1.17,4.32-1.35,6.24-.22,2.3-.26,4.73-.12,7.88.12,2.61.36,5.37.75,8.68.66,5.49,1.61,10.99,2.55,16.11l.1.52.1.51-.05.14-.09.24-.24.56-.24.57.12-.14c-.13.17-.17.26-.21.33-.08.25-.08.45-.03.66.08.29.28.55.54.7.18.1.38.15.59.15.09,0,.16,0,.23-.02l.05.43c.11.69.23,1.39.33,2.09.04.21.26.34.45.34.42-.09.47-.37.43-.58-.08-.56-.17-1.12-.27-1.68.07.06.17.08.27.08.14,0,.26-.04.35-.12.42-.36.85-.8,1.34-1.36.05.03.12.05.19.06h.17s.17.02.17.02c.25-.02.48-.1.67-.24.61-.32,1.19-.74,1.76-1.14l.23-.17c1.12-.79,2.29-1.66,3.68-2.74,3.44-2.66,6.8-5.46,9.99-8.32,3.1-2.77,6.68-6.1,9.75-9.82,1.35-1.62,2.41-3.14,3.26-4.63.39-.7.68-1.32.89-1.92.21-.57.42-1.25.46-1.96.05-.83-.03-1.45-.26-2.01-.27-.64-.69-1.19-1.21-1.59-.54-.41-1.2-.71-2.06-.93-.33-.08-.66-.14-1-.17-.36-.03-.73-.07-1.09-.07-.13,0-.24,0-.36,0-.8.04-1.67.28-2.5.68-.87.41-1.69.95-2.5,1.62-2,1.67-3.59,3.72-4.75,5.33-1.14,1.58-2.27,3.32-3.69,5.65-1.29,2.14-2.55,4.37-3.62,6.3l-1.3,2.35c-1.68,3.06-3.42,6.22-5.31,9.22-.28.44-.57.88-.86,1.31-.32.25-.65.48-.99.7-.52.32-.73.89-.6,1.47-.34.4-.69.79-1.08,1.15l-.11.12h0s0-.01,0-.01c-.04,0-.05-.06-.06-.12l.08-.14c.27-.61.55-1.22.77-1.84.19-.52.36-1.05.53-1.58.43-1.34.86-2.82,1.36-4.66,1.15-4.23,2.17-8.64,3.02-13.1.48-2.48.87-4.89,1.19-7.18.35-2.57.57-4.81.69-6.85.12-2.2.08-4.01-.1-5.68-.16-1.35-.43-2.91-1.18-4.3-.62-1.13-1.59-1.89-2.66-2.09-.24-.05-.5-.07-.75-.07"/>
            <path class="cls-4" d="M589.19,195.03c-2.5,0-4.96.62-6.6,1.09-2.47.71-5.08,1.7-8.21,3.12-2.55,1.15-5,2.38-7.7,3.75l-.79.4c-1.72.87-3.49,1.77-5.3,2.51-.2.08-.35.24-.43.45-.09.22-.08.47.01.67.14.3.44.49.78.49.12,0,.24-.02.35-.07.59-.24,1.17-.5,1.75-.77.17.26.47.42.79.42.05,0,.11,0,.16-.02.37-.07.74-.09,1.11-.11.36-.02.72-.04,1.08-.06l.5-.03h0s.12-.01.12-.02c0,0,.09-.02.08-.02l3.38-.11c2.76-.11,5.51-.22,8.27-.4,2.46-.15,4.69-.34,6.8-.57,2.39-.26,4.33-.56,6.08-.94.86-.18,1.71-.41,2.61-.69.73-.23,1.36-.48,1.93-.78.64-.33,1.14-.72,1.55-1.16.37-.4.6-.91.67-1.46.07-.5-.07-1.09-.36-1.61-.39-.69-.96-1.23-1.47-1.67-.81-.69-1.7-1.24-2.65-1.64-1.02-.43-2.25-.69-3.65-.76-.28-.01-.57-.02-.85-.02"/>
            <path class="cls-3" d="M566.11,208.17c-.06,0-.13,0-.2.02-.29.05-.56.22-.73.46-.17.24-.24.54-.19.84.05.26.21.6.46.73.08.04.15.08.22.12-.59-.1-1.2-.18-1.8-.25h0c-.42,0-.74.3-.77.66-.03.39.26.73.66.77,1.46.17,2.92.36,4.39.56l.21.15h0c1.11.86,2.21,1.73,3.3,2.59l1.38,1.09c3.53,2.79,7.53,5.95,11.71,8.79,2.12,1.44,3.94,2.55,5.74,3.49,1.33.69,2.92,1.43,4.6,1.66.2.03.41.04.62.04,1.24,0,2.26-.5,2.79-1.36.35-.57.53-1.24.55-2.01.01-.98-.17-1.97-.55-3.02-.32-.87-.84-1.77-1.56-2.65-.61-.76-1.4-1.5-2.41-2.27-.86-.65-1.84-1.27-3.01-1.87-1.09-.57-2.27-1.1-3.6-1.62-2.27-.88-4.79-1.63-7.93-2.37-2.5-.58-5.09-1.09-7.93-1.54-.49-.08-.99-.15-1.49-.22l-.77-.58-.15-.11c-.99-.74-2.02-1.5-3.15-2.04-.13-.04-.25-.07-.38-.07"/>
            <path class="cls-7" d="M548.73,184.4c-.36,0-.74.06-1.12.19-.44.13-.86.38-1.25.72-.33.31-.58.73-.77,1.29-.18.51-.22,1.08-.23,1.46-.02.65.08,1.28.18,1.82.2,1.06.55,2.08.84,2.84.23.59.47,1.19.73,1.77-.5-.56-1.14-1.13-2.04-1.87-1.22-.97-2.3-1.75-3.31-2.39-1.1-.7-2.13-1.2-3.12-1.56-.78-.29-1.53-.44-2.22-.44-.18,0-.37.01-.55.04-.45.06-.86.18-1.24.37-.36.18-.71.47-1.02.85-.29.36-.52.75-.7,1.22-.12.29-.14.66-.07,1.09.08.49.3.99.68,1.58.43.68.98,1.3,1.41,1.77,1.36,1.45,2.92,2.77,4.29,3.93l.13.11,1.63,1.35.23.19c1.02.84,2.04,1.68,3.04,2.55.72.62,1.43,1.25,2.12,1.92.72.69,1.25,1.27,1.67,1.82l.15.21c-.9,1.51-1.53,2.97-1.94,4.42-.38,1.34-.53,2.61-.44,3.8.08,1.03.36,1.98.83,2.81.43.77,1.09,1.42,1.9,1.86.71.4,1.56.61,2.53.62.96,0,1.91-.22,3.09-.72.98-.42,1.97-1.07,3.11-2.06.82-.72,1.63-1.61,2.47-2.72.17.14.37.29.58.45l-.08-.19c.99.89,1.9,1.85,2.59,2.6.93,1.02,1.82,2.07,2.71,3.12l.16.19c.95,1.12,1.92,2.25,2.92,3.34,1.03,1.12,1.97,2.01,2.88,2.7.5.37.9.62,1.29.82.5.26.99.43,1.46.5.21.03.42.05.63.05.36,0,.6-.05.85-.1.27-.07.53-.17.8-.28.3-.12.59-.26.87-.45.87-.56,1.45-1.42,1.59-2.37.04-.25.07-.5.06-.75,0-.2-.04-.4-.07-.6l-.02-.17c-.08-.47-.25-.97-.52-1.56-.39-.92-.94-1.84-1.79-2.96-.75-.99-1.62-1.99-2.65-3.04-.21-.21-.42-.42-.64-.62-.17-.15-.34-.3-.51-.44l-.24-.22-.3-.26-.56-.49c.39.12.84.17,1.42.17,1.08,0,1.93-.17,2.62-.52.58-.29,1-.84,1.09-1.42.09-.62-.08-1.29-.51-1.97-.38-.63-.92-1.23-1.71-1.89-.75-.62-1.63-1.19-2.69-1.74-1.03-.53-2.17-.97-3.41-1.31-.65-.18-1.31-.31-1.99-.43.86-.47,1.68-1.08,2.52-1.84,1.06-.95,1.87-1.98,2.43-3.05.5-.92.75-1.88.72-2.76-.02-.43-.11-.84-.25-1.16-.16-.4-.37-.73-.65-1.04-.24-.26-.56-.48-.92-.65-.36-.18-.76-.29-1.28-.36-.19-.02-.38-.04-.58-.04-.68,0-1.42.15-2.2.43-1.05.38-2.07.98-3.29,1.95l-.18.15c.36-.59.66-1.28.98-2.16.54-1.43.85-2.71.96-3.9.11-1.26-.11-2.26-.65-2.97-.25-.33-.61-.62-1.09-.86-.43-.23-.89-.36-1.4-.42-.08-.01-.16-.01-.24-.01-.3,0-.62.06-.95.17-.36.11-.73.32-1.15.65-.32.25-.6.56-.92.98-.29.37-.56.82-.87,1.4-.47.89-.86,1.9-1.26,3.28-.32,1.05-.59,2.24-.84,3.66-.06-.92-.25-1.8-.42-2.56-.33-1.44-.68-2.7-1.09-3.86-.45-1.34-.93-2.41-1.5-3.37-.6-1-1.3-1.74-2.06-2.19-.39-.23-.82-.37-1.28-.43-.12-.01-.24-.02-.37-.02"/>
            <path class="cls-61" d="M538.52,193.57c-.09.16-.12.35-.07.53.07.25.25.39.48.48.15.05.29.11.44.17-.05-.02-.11-.05-.15-.07,1.46.62,2.82,1.45,4.09,2.4,0,0,0,0,0,0,0,0,0,0,0,0,.03.02.06.04.09.07-.02-.01-.03-.02-.05-.03.77.6,1.5,1.24,2.2,1.92.76.74,1.46,1.55,2.11,2.39.87,1.14,1.65,2.34,2.3,3.62.1.18.35.24.52.14.18-.11.23-.33.14-.52-1.22-2.36-2.81-4.49-4.66-6.39-.95-.98-1.98-1.88-3.06-2.71-1.09-.84-2.24-1.56-3.44-2.24-.11-.06-.23-.09-.35-.09-.23,0-.46.12-.59.33M543.34,197.11s-.03-.02-.04-.03h0s.03.02.04.03"/>
            <path class="cls-61" d="M548.37,189.77c-.29.17-.38.55-.22.84.66,1.15,1.25,2.33,1.77,3.55-.02-.04-.03-.08-.05-.12,1.07,2.56,1.85,5.24,2.23,7.99,0-.03-.01-.07-.02-.1.08.61.14,1.22.18,1.83.01.21.16.38.38.38.2,0,.39-.17.38-.38-.31-4.78-1.69-9.47-3.82-13.76-.1-.2-.32-.3-.53-.3-.11,0-.22.03-.31.08"/>
            <path class="cls-61" d="M559.85,191.99c-.11.07-.22.21-.24.34-.09,1.08-.25,2.16-.48,3.22-.23,1.05-.53,2.09-.88,3.11,0-.02.01-.04.02-.06-.78,2.24-1.79,4.37-2.99,6.41-.11.18,0,.42.17.51.19.1.4.01.51-.17.55-.94,1.06-1.9,1.53-2.88.51-1.07.97-2.16,1.37-3.27.81-2.16,1.39-4.4,1.79-6.67.05-.28-.12-.57-.42-.63-.03,0-.07-.01-.11-.01-.1,0-.2.03-.29.09"/>
            <path class="cls-61" d="M566.89,198.11c-2.62,2.99-5.31,5.94-8.34,8.54.03-.02.05-.04.08-.07-.28.24-.57.48-.86.71-.08.07-.15.14-.17.24-.02.1,0,.2.05.28.11.16.37.24.53.11,1.68-1.37,3.3-2.8,4.87-4.3,1.6-1.54,3.12-3.17,4.6-4.83.19-.21.17-.53-.03-.72-.1-.09-.22-.13-.35-.13-.14,0-.28.05-.38.17"/>
            <path class="cls-61" d="M559.49,209.47c-.07.08-.11.18-.1.29,0,.1.05.2.13.26.09.08.18.09.29.1.15.01.31.02.46.03h-.01c3.51.22,7.05.57,10.41,1.67.26.09.51.18.76.28.13.05.25.07.38.02.12-.04.22-.13.28-.25.06-.12.07-.26.03-.38-.03-.08-.08-.15-.14-.21-.07-.06-.14-.1-.23-.12-.98-.33-1.96-.6-2.97-.82-1.01-.23-2.02-.38-3.05-.52-1.98-.26-3.99-.37-5.99-.5h-.01c-.09,0-.19.07-.25.13M570.72,211.84s.03.01.04.02c-.01,0-.03,0-.04-.02"/>
            <path class="cls-61" d="M562.67,213.52c-.11.18-.03.4.13.52.81.56,1.6,1.14,2.38,1.75h-.01s.02,0,.03.01c.02.01.04.03.05.04,0,0,0,0,0,0,1.1.88,2.17,1.81,3.18,2.8,1.01,1,1.95,2.07,2.81,3.19.48.65.93,1.32,1.34,2.01.21.36.68.5,1.04.29.34-.2.52-.7.29-1.05-.65-.96-1.35-1.88-2.13-2.75-.85-.95-1.79-1.81-2.78-2.63-1.85-1.54-3.83-2.94-5.81-4.32-.05-.04-.12-.06-.18-.06-.13,0-.27.07-.34.19M565.24,215.84s-.03-.02-.05-.03c0,0-.01,0-.02-.01.02.02.04.03.06.05"/>
          </g>
          <g>
            <path class="cls-27" d="M460.68,181.74h0c-.29.07-.55.21-.75.41-3.5,3.58-6.56,7.63-8.83,10.75l-1.53,2.13c-1.88,2.61-4,5.56-6.23,8.23l-.1.16c-2.94,3.39-5.94,6.16-9.17,8.45-.91.63-1.84,1.25-2.76,1.88l-1.92,1.3c-1.59,1.08-3.17,2.19-4.74,3.3-3.47,2.47-6.08,4.49-8.46,6.54-2.69,2.33-5.14,4.82-7.28,7.4-2.2,2.67-4.11,5.6-5.65,8.68-3.56,7.07-5.51,15.49-5.79,25.01-.26,9.14,1.23,18.89,4.42,29,1.05,3.34,2.32,6.77,3.88,10.48.1.24.37.41.67.41.06,0,.13,0,.19-.02.64,1.22,1.47,2.51,2.45,3.83,1.48,1.95,3.26,3.7,5.29,5.2,1.82,1.34,3.91,2.43,6.21,3.24,2.75.98,5.81,1.48,9.09,1.48,1.6,0,3.31-.12,5.11-.36,2.31-.32,4.65-.87,7.14-1.68,2.5-.8,5.05-1.82,7.59-3.04,4.7-2.26,9.48-5.31,14.2-9.08,4.33-3.46,8.43-7.5,12.17-12.03,3.51-4.24,6.37-8.68,8.48-13.17.65-1.37,1.18-2.61,1.62-3.78.52-1.36.99-2.84,1.47-4.65,1.23-4.58,1.88-9.32,1.91-14.08.02-4.46-.5-9.04-1.55-13.61-.97-4.21-2.41-8.49-4.39-13.06-1.72-3.96-3.86-7.98-6.55-12.28-1.22-1.96-2.64-4.07-4.6-6.82-.59-.76-1.17-1.52-1.74-2.28-1.86-2.5-4.25-5.85-6.17-9.57-1.89-3.69-3.05-7.05-3.56-10.29-.3-1.96-.4-3.74-.31-5.46.04-.91.13-1.78.25-2.59,0,0-.04-.03-.04-.03"/>
            <g>
              <path class="cls-2" d="M419.64,245.88s.01.04.02.05c0,0,0-.02,0-.03,0,0,0-.02-.01-.03Z"/>
              <path class="cls-2" d="M406.5,265.02s.02.02.02.03c0-.01-.01-.02-.02-.03,0,0,0,0,0,0Z"/>
              <path class="cls-2" d="M406.49,265s0,.01.02.02c0,0,0,0,0,0,0,0-.01-.01-.01-.02Z"/>
              <polygon class="cls-2" points="459.53 234.91 459.52 234.92 459.53 234.91 459.53 234.91"/>
              <polygon class="cls-2" points="459.51 234.92 459.52 234.92 459.52 234.92 459.51 234.92"/>
              <path class="cls-15" d="M475.52,248.15c-.07-.08-.18-.12-.28-.12-.09,0-.18.03-.25.1-1.24,1.24-2.58,2.36-4,3.39-2.54,1.81-5.3,3.29-8.11,4.63-2.87,1.36-5.8,2.62-8.7,3.91-2.85,1.27-5.65,2.65-8.29,4.34-2.62,1.69-5.06,3.71-7.07,6.1-.87,1.03-1.65,2.12-2.34,3.26.03-.94.06-1.87.12-2.81.14-2.34.4-4.68.7-7.01.34-2.67.83-5.3,1.4-7.93.08-.07.16-.13.19-.22.89-2.01,2.08-3.9,3.45-5.62,1.43-1.75,3.07-3.31,4.81-4.77,1.79-1.5,3.65-2.9,5.54-4.27,0,0-.01,0-.02.01,1.28-.92,2.57-1.83,3.86-2.75-.02.01-.04.03-.06.04,1.02-.74,2.02-1.5,3.02-2.27,1.05-.8,2.08-1.63,3.08-2.49,1.88-1.63,3.61-3.42,5.08-5.43.12-.17.03-.43-.13-.53-.06-.04-.13-.05-.19-.05-.13,0-.25.07-.33.18-.21.29-.43.56-.65.84-1.96,2.39-4.33,4.39-6.82,6.2,0,0,.02-.01.02-.02,0,0-.02.01-.03.02h0c-1.02.74-2.07,1.41-3.12,2.1-1.08.69-2.15,1.38-3.24,2.06-2.21,1.39-4.42,2.81-6.53,4.35-2.03,1.49-3.94,3.17-5.61,5.07-.25.28-.47.58-.71.87,2-7.45,4.57-14.74,7.14-22.01.12-.34.24-.67.36-1.01,0,0,0,0,0,0,.25-.06.41-.21.56-.41.43-.58.87-1.16,1.32-1.73-.01.01-.02.03-.03.04.04-.05.08-.09.11-.14h0s0,0,0,0c2.2-2.69,4.7-5.11,7.1-7.62,1.2-1.25,2.37-2.53,3.46-3.88,1.13-1.4,2.15-2.88,3.03-4.45.1-.18.05-.41-.13-.52-.06-.04-.13-.05-.2-.05-.13,0-.26.06-.32.18-.63,1.1-1.33,2.14-2.12,3.12-1.04,1.27-2.17,2.46-3.36,3.59-1.2,1.14-2.44,2.21-3.68,3.31-1.43,1.27-2.84,2.59-4.14,4,2.02-5.77,3.97-11.56,5.63-17.44,1.16-4.13,2.17-8.28,2.98-12.5.04-.2-.14-.4-.33-.42-.01,0-.03,0-.04,0-.2,0-.34.15-.38.33-.4,2.05-.88,4.07-1.4,6.09h0c-2.02,7.75-4.83,15.27-7.8,22.7-.18.45-.36.89-.54,1.33.09-2.2.16-4.39.07-6.59-.07-1.48-.21-2.95-.44-4.41-.27-1.65-.69-3.27-1.23-4.85-.06-.17-.19-.3-.37-.3-.03,0-.06,0-.08.01-.19.04-.35.25-.29.46.27.8.5,1.62.68,2.46.18.86.29,1.73.37,2.6.18,2.21.09,4.43-.03,6.65-.12,2.29-.27,4.59-.21,6.89,0,.17.05.32.16.46-2.4,5.9-4.83,11.79-7.1,17.73-.75,1.95-1.46,3.92-2.15,5.89-.19-.45-.39-.89-.56-1.35-.57-1.63-.98-3.3-1.29-5-.32-1.78-.5-3.58-.67-5.38-.24-2.82-.39-5.66-.75-8.47-.18-1.41-.43-2.82-.78-4.2-.34-1.4-.81-2.79-1.37-4.12-.06-.13-.2-.2-.34-.2-.06,0-.12.01-.17.04-.2.11-.24.33-.16.52.12.29.24.57.35.87.74,2.09,1.13,4.3,1.34,6.51v-.03s0,.08.01.13c0-.03,0-.07-.01-.1,0,.04,0,.07.01.11.17,2.03.23,4.08.25,6.11.03,2.09.04,4.18.17,6.26.12,2.05.38,4.1.89,6.09.25.99.6,1.97,1,2.92.31.74.71,1.44,1.15,2.11-.27.84-.57,1.67-.83,2.51-1.19,3.87-2.28,7.77-3.06,11.73-.36,1.86-.67,3.71-.91,5.58-2.14-3.26-3.8-6.82-5.17-10.47-2.68-7.27-4.57-14.91-8.55-21.61-.07-.13-.2-.2-.34-.2-.06,0-.12.02-.17.05-.17.09-.26.33-.15.51,1.14,1.93,2.06,3.97,2.84,6.07,0,.01,0,.02.01.04,0,0,0-.02,0-.03,0,.02.01.04.02.05,0,.01.01.03.02.04,0,0,0-.01,0-.02.94,2.6,1.65,5.27,2.32,7.95.7,2.78,1.35,5.57,2.15,8.32.81,2.75,1.78,5.45,3.13,7.99.69,1.29,1.48,2.52,2.36,3.69.36.49.76.95,1.17,1.4-.06.77-.11,1.54-.14,2.31-.13,3.9.06,7.82.65,11.68-.65-.06-1.29-.14-1.93-.24-1.62-.31-3.2-.8-4.7-1.5-1.19-.6-2.31-1.31-3.34-2.15-1.63-1.41-2.99-3.07-4.23-4.82-1.99-2.87-3.64-5.96-5.39-8.98-1.8-3.09-3.71-6.16-6.04-8.88-.07-.08-.18-.12-.28-.12-.1,0-.19.03-.27.1-.16.15-.17.39-.02.55.48.57.95,1.16,1.39,1.77,0,0,0,0,0-.01,0,.01.01.02.02.03,0,0,0,0,0,0,.01.02.02.03.04.05,0,0-.01-.01-.02-.02,3.22,4.62,4.95,10.05,7.56,15.01.63,1.2,1.29,2.38,2.04,3.51.77,1.15,1.6,2.25,2.53,3.27.93,1.02,1.98,1.95,3.1,2.77,1.18.85,2.5,1.52,3.85,2.03,1.1.41,2.24.66,3.39.86.99.17,1.99.23,2.99.24.3,1.31.64,2.62,1.03,3.91.32,1.05.69,2.1,1.11,3.12.47,1.14,1.05,2.23,1.69,3.28.24.31.54.54.9.69.53.21,1.12.21,1.65-.01.91-.38,1.43-1.33,1.3-2.3-.27-2.04-.75-4.04-1.15-6.04-.42-2.04-.8-4.08-1.11-6.13-.5-3.29-.81-6.6-.93-9.93.05-.06.12-.1.15-.16.57-1.22,1.18-2.41,1.86-3.56.65-1.07,1.37-2.1,2.15-3.07.88-1.07,1.83-2.06,2.84-3,1.06-.97,2.18-1.86,3.34-2.7,2.22-1.59,4.57-2.99,6.95-4.33,1.27-.71,2.55-1.41,3.83-2.09,1.3-.68,2.6-1.34,3.89-2.03,5.01-2.68,10-5.62,14.03-9.69.14-.15.16-.38.01-.53Z"/>
            </g>
          </g>
          <g>
            <path class="cls-28" d="M422.14,302.81s-.1.02-.1.02h0c-.74.1-1.55.28-2.47.55-1.57.46-3.02,1.23-4.11,1.84-1.23.7-2.43,1.5-3.58,2.27-1.29.87-2.63,1.76-4.03,2.51-1.19.63-2.36,1.08-3.52,1.38-.31.07-.62.12-.94.16-.6.08-1.2.11-1.8.1-.55-.03-1.09-.09-1.62-.19-.5-.08-.98-.22-1.46-.35l-.23-.06-.2-.05h0c-.12-.05-.24-.07-.35-.05-.22.03-.4.16-.49.36-.07.15-.07.32-.02.48.07.17.18.27.33.36,1.72,1.01,3.37,1.79,5.05,2.41,1.55.57,3.23,1,4.98,1.27,2.73.43,5.82.42,9.44-.02l.6-.08c2.03-.27,4.08-.65,6.06-1.02.93-.17,1.85-.35,2.78-.51,1.05-.18,2.1-.35,3.15-.49,2.55-.34,4.82-.47,6.95-.42,1.21.03,2.54.15,3.88.34.18.16.49.24.79.22h0c.31-.04.57-.19.76-.4.19-.23.28-.53.25-.82-.03-.28-.15-.52-.4-.76-4.31-4.19-10.17-9.02-17.27-9.16-.81-.03-1.62.02-2.41.12"/>
            <path class="cls-29" d="M377.97,154.74c-.93,1.44-1.71,2.99-2.46,4.5-.27.55-.55,1.1-.83,1.64-.71,1.38-1.49,2.78-2.4,4.27-1.74,2.9-3.68,5.73-5.51,8.34-.79,1.12-1.59,2.24-2.38,3.35-3.04,4.26-6.17,8.66-8.82,13.29-1.76,3.11-3.13,6.01-4.19,8.87-1.11,3.01-1.86,6.17-2.2,9.39-.35,3.33-.17,6.73.53,10.1.35,1.67.86,3.42,1.6,5.52.68,1.92,1.42,3.65,2.23,5.28,1.55,3.09,3.51,6.02,5.85,8.68,1.97,2.25,4.37,4.45,7.35,6.75,4.23,3.26,8.88,6.08,13.37,8.8,1.36.82,2.71,1.64,4.06,2.48,1.81,1.12,3.4,2.14,4.87,3.13l.11.13c.68.31,1.36.62,2.04.92.05-.03.1-.07.15-.11.21-.19.35-.48.37-.78.02-.34-.12-.58-.29-.83l-.11-.15c-1.83-2.65-3.55-5.27-4.65-8.24-.33-.98-.58-1.91-.76-2.83-.19-.9-.32-1.87-.4-3.05-.15-2.63.06-5.46.64-8.68l.04-.21c.5-2.54,1.15-5.09,1.79-7.55.35-1.35.69-2.71,1.02-4.06.51-2.16.9-4.16,1.19-6.08.32-2.26.44-4.58.33-6.89-.09-2.04-.37-4.12-.84-6.21-.49-2.16-1.21-4.24-1.78-5.8-1.06-2.88-2.35-5.71-3.6-8.46-.49-1.08-.98-2.16-1.46-3.25-.7-1.59-1.44-3.31-2.08-5.1-1.19-3.44-1.96-6.98-2.26-10.47l-.03-.19h-.01c-.25-4.11.06-8.61.99-13.7,0,0,0-.02,0-.04h-.01s.02-.01.02-.01c0-.02,0-.04,0-.04,0,0,0-.07,0-.07.11-.45.21-.9.32-1.36l.09-.41c.05-.19.07-.35.03-.53-.06-.27-.23-.51-.46-.66-.2-.13-.45-.19-.7-.15-.3.04-.57.21-.74.47"/>
            <path class="cls-11" d="M422.1,200.37c-.31.04-.56.25-.64.52-.48,1.45-.9,2.99-1.29,4.71-.32,1.41-.59,2.83-.86,4.25l-.15.8.09-.17c-.88,4.22-1.66,7.71-3.26,11.03-.8,1.6-1.82,3.17-3.21,4.94-.76.97-1.55,1.92-2.35,2.86l-.38.45c-.36.43-.73.87-1.09,1.3-1.48,1.8-2.58,3.36-3.45,4.9-1.02,1.78-1.86,3.86-2.49,6.18-.55,2.03-.85,4.17-.9,6.37-.04,1.92.15,3.99.59,6.15.75,3.68,2.26,7.52,4.64,11.75,2.42,4.29,5.32,8.26,8.09,11.9-1.88-1.22-3.96-2.31-6.15-3.25-1.9-.81-3.86-1.47-5.82-1.96-1.51-.38-3.12-.57-4.78-.57-.96,0-1.98.07-3.05.21-2,.26-4.13.77-6.53,1.57-2.79.92-5.53,2.09-8.19,3.23-2.23.96-4.64,1.99-7.05,2.86l-.15.07c-2.48.84-4.51,1.35-6.37,1.59-.32.04-.63.08-.95.11-1.36.08-2.56.02-3.68-.17-.54-.1-1.07-.24-1.62-.42-.35-.12-.7-.26-1.05-.41l-.57-.24c-.27-.14-.55-.3-.82-.46-.2-.11-.42-.16-.62-.13-.19.02-.36.1-.5.23-.37.34-.39.91-.06,1.31,2.83,3.26,5.13,5.62,7.46,7.66,2.43,2.13,4.79,3.77,7.21,4.99,1.2.61,2.46,1.13,3.73,1.54,1.17.38,2.43.67,3.88.89,2.48.37,5.15.36,8.17-.03l.26-.03c1.86-.26,3.79-.66,5.91-1.22,1.47-.39,2.94-.86,4.37-1.32l.37-.12c.71-.23,1.42-.46,2.13-.68,4.54-1.42,8.71-2.36,12.75-2.89.96-.13,1.93-.23,2.9-.31,3.77-.26,7.05-.11,10.08.45l.36.08.21.21.22.23c.25.26.61.39.97.34.23-.03.43-.13.6-.28.17.02.24.03.32.01.2-.03.37-.16.44-.36.05-.13.03-.29-.04-.42-.07-.13-.17-.21-.3-.25-.15-.28-.23-.42-.35-.55-2.81-3.1-5.86-5.93-9.08-8.41-.87-.67-1.76-1.31-2.67-1.93.1-.09.12-.28.07-.44.06-.03.25-.2.31-.44.29-1.25.62-2.37.99-3.43.36-1.04.82-2.13,1.4-3.32,1.36-2.74,3.08-5.43,4.59-7.8l1.12-1.77c1.94-3.07,3.93-6.42,5.34-10.12.73-1.91,1.3-4.04,1.74-6.5.36-2,.52-4.13.48-6.33-.06-3.59-.71-7.47-2-11.88-.98-3.31-2.19-6.56-3.37-9.7l-.05-.15c-.67-1.79-1.34-3.58-1.97-5.39-.64-1.86-1.19-3.61-1.69-5.37-.25-.91-.49-1.83-.7-2.76-.13-.53-.24-1.05-.35-1.57l-.08-.4-.24-1.12c-.07-.34-.37-.6-.72-.62h-.14Z"/>
            <path class="cls-30" d="M448.49,325.67c-.75-2.55-1.62-5.05-2.57-7.53-1.91-4.96-4.24-9.74-6.79-14.4-1.28-2.34-2.61-4.66-4.05-6.91-1.26-1.97-2.63-3.88-4.07-5.72-2.85-3.63-6.04-6.97-9.4-10.14-.92-.87-1.88-1.7-2.83-2.53-.21-.5-.43-.99-.63-1.5-.44-1.08-.84-2.18-1.2-3.29-.66-2.03-1.19-4.1-1.59-6.2-.08-.46-.12-.93-.19-1.39,1.2-1.08,2.33-2.25,3.37-3.47.59-.69,1.14-1.4,1.69-2.13.63-.83,1.23-1.68,1.8-2.55.52-.8,1.02-1.61,1.51-2.43.48-.81.92-1.66,1.34-2.5.84-1.66,1.56-3.37,2.19-5.12.06-.19-.08-.41-.26-.47-.05-.01-.1-.02-.15,0-.15.02-.27.13-.32.27-.24.67-.5,1.34-.78,2-.69,1.62-1.49,3.19-2.37,4.71-.48.82-.98,1.64-1.52,2.43-.51.77-1.06,1.52-1.63,2.25-.94,1.21-1.95,2.36-3.02,3.47-.65.68-1.35,1.32-2.06,1.94-.31-3.08-.31-6.19-.05-9.27,0,.02,0,.04,0,.05.14-1.43.33-2.86.55-4.28.45-.42.9-.84,1.34-1.28.69-.68,1.34-1.38,1.97-2.11.6-.69,1.16-1.41,1.72-2.14.58-.77,1.12-1.56,1.64-2.38,1.99-3.14,3.48-6.6,4.43-10.2.05-.2-.07-.41-.26-.47-.05-.01-.1-.01-.14,0-.15.02-.28.12-.32.27-.43,1.61-.97,3.19-1.6,4.73-.59,1.39-1.26,2.74-2.01,4.05-.8,1.39-1.7,2.72-2.68,3.99,0,0,.02-.02.03-.03-1.17,1.48-2.45,2.88-3.87,4.13.25-1.45.54-2.9.85-4.34.37-1.74.75-3.48,1.17-5.22.42-1.75.85-3.5,1.27-5.25.28-1.17.55-2.33.82-3.5.02-.01.05,0,.07-.03,1.07-1.35,2.11-2.74,3.01-4.22.95-1.55,1.7-3.2,2.22-4.94.06-.2-.07-.41-.26-.47-.05-.01-.1-.01-.14,0-.15.02-.28.13-.32.27-.19.63-.41,1.25-.65,1.86,0,0,0,0,0,0,0,0,0,.02-.01.03,0,.02-.02.04-.02.06,0,0,0-.01,0-.02-.22.52-.46,1.02-.72,1.53-.27.52-.57,1.03-.87,1.53-.58.94-1.23,1.84-1.89,2.72.41-1.81.81-3.63,1.16-5.45.69-3.58,1.13-7.23,1.26-10.88.05-1.35.05-2.71.02-4.06,0-.26-.22-.37-.43-.35-.18.02-.34.15-.33.38.05,1.85-.02,3.68-.17,5.52,0,0,0,0,0,0,0,.02,0,.04,0,.06,0,.02,0,.03,0,.05,0,0,0,0,0,0-.33,3.62-1.03,7.21-1.87,10.75-.3,1.24-.65,2.47-1,3.7-.21-.56-.43-1.12-.6-1.7-.25-.88-.43-1.78-.55-2.68-.02-.18-.04-.35-.06-.52-.01-.1-.04-.19-.11-.27-.07-.07-.17-.11-.27-.11-.02,0-.04,0-.06,0-.08.01-.15.05-.21.1-.06.07-.12.18-.11.27.05.5.12.99.2,1.49.1.64.26,1.28.44,1.91.25.93.61,1.83,1,2.72-.54,1.86-1.12,3.72-1.71,5.57-1.09,3.41-2.2,6.83-3.14,10.28-.18.67-.35,1.34-.51,2.01-.11-.2-.23-.4-.33-.61-.27-.53-.52-1.07-.75-1.62,0,0,0,0,0,0-.52-1.25-.94-2.53-1.28-3.85-.34-1.29-.58-2.61-.76-3.93-.09-.7-.16-1.41-.21-2.12-.02-.21-.16-.38-.38-.38-.02,0-.03,0-.04,0-.18.02-.35.19-.34.38.09,1.11.21,2.22.37,3.33.18,1.25.44,2.5.76,3.72.3,1.13.69,2.24,1.14,3.32.43,1.02.94,1.99,1.54,2.91-.54,2.35-.99,4.71-1.31,7.1-.27,2.02-.41,4.05-.41,6.08,0,.41.04.83.05,1.24-.07-.09-.15-.17-.22-.25.02.02.04.05.06.07-.63-.82-1.2-1.69-1.71-2.59-.52-.9-.97-1.84-1.38-2.8-.91-2.18-1.6-4.45-2.18-6.75-.05-.19-.24-.3-.42-.27-.01,0-.03,0-.04,0-.2.06-.32.27-.27.46.33,1.31.69,2.6,1.11,3.87.43,1.34.94,2.65,1.53,3.92.6,1.31,1.32,2.57,2.14,3.76.43.62.92,1.21,1.43,1.78.09,1.23.21,2.45.42,3.67.26,1.56.62,3.1,1.09,4.61-3-2.4-6.06-4.73-9.11-7.08-3.08-2.37-6.13-4.77-9.15-7.22-1.57-1.27-3.11-2.57-4.64-3.89-1.49-1.29-2.97-2.61-4.39-3.99-2.67-2.68-5.04-5.63-7.12-8.78,1.84-3.01,2.78-6.47,3.49-9.9.78-3.76,1.18-7.58,1.43-11.41.01-.21-.2-.37-.39-.37-.01,0-.02,0-.03,0-.2.03-.32.2-.33.39-.06.91-.13,1.81-.21,2.73,0-.04,0-.07,0-.1-.19,2.07-.46,4.13-.84,6.17-.39,2.12-.94,4.2-1.67,6.23-.64,1.71-1.42,3.36-2.28,4.96-.17-.28-.36-.55-.53-.83-1.59-2.72-3-5.54-4.23-8.44-1.2-2.84-2.19-5.78-3.01-8.75,0,.02,0,.03.01.05-.02-.06-.03-.12-.05-.18,0-.01,0-.02,0-.03v.02c-.04-.18-.08-.36-.12-.53.18,0,.36-.06.49-.2,1.53-1.59,2.81-3.4,3.91-5.31,1.13-1.96,2.03-4.03,2.84-6.13,1.59-4.15,2.8-8.42,3.97-12.71.05-.2-.1-.41-.29-.46-.04,0-.09-.01-.13,0-.15.02-.28.14-.33.3-.86,3.12-1.75,6.25-2.85,9.29,0-.01.01-.02.02-.04-1.45,3.94-3.31,7.74-5.73,11.18-.69.96-1.43,1.88-2.2,2.78-1.21-5.01-1.96-10.15-1.98-15.3.01-2.16.18-4.31.45-6.45.13-.02.26-.08.35-.18.97-.98,1.84-2.05,2.64-3.17.84-1.18,1.58-2.42,2.28-3.69.71-1.3,1.34-2.64,1.97-3.98.62-1.33,1.2-2.67,1.79-4.02.08-.19.04-.42-.16-.52-.07-.04-.15-.05-.23-.04-.12.02-.23.08-.29.2-.8,1.82-1.66,3.61-2.62,5.34-.98,1.74-2.04,3.43-3.18,5.06-.48.66-.96,1.32-1.47,1.97-.25.32-.52.62-.79.94.52-3.25,1.27-6.47,2.14-9.65,0,0,0,.02,0,.02,1.93-6.99,4.27-13.87,5.61-21,.05-.29-.2-.44-.42-.41-.15.02-.29.12-.32.31-.49,2.58-1.11,5.13-1.81,7.67h0c-1.24,4.46-2.72,8.87-4.04,13.33-.95,3.24-1.8,6.51-2.39,9.83-.1-.18-.2-.36-.3-.54-.33-.62-.62-1.26-.9-1.91-.58-1.36-1.06-2.76-1.45-4.18-.4-1.45-.69-2.92-.9-4.41-.04-.31-.08-.62-.12-.93-.01-.11-.04-.19-.11-.27-.07-.07-.17-.11-.27-.11-.01,0-.03,0-.04,0-.17.02-.35.19-.33.38.12,1.08.28,2.15.48,3.21.23,1.22.53,2.44.88,3.63.34,1.14.75,2.27,1.22,3.36.47,1.08,1,2.13,1.64,3.12-.12.77-.25,1.54-.34,2.32-.28,2.39-.39,4.8-.34,7.21.05,2.37.31,4.74.63,7.08.3,2.19.71,4.36,1.2,6.52-.63-.54-1.27-1.07-1.85-1.66-.81-.81-1.56-1.68-2.26-2.58-1.9-2.47-3.42-5.2-4.66-8.05,0,.01,0,.02.01.04-1.37-3.21-2.39-6.56-3.01-9.99-.03-.19-.24-.29-.41-.27-.02,0-.03,0-.05,0-.1.03-.18.09-.23.17-.05.1-.05.19-.03.3.8,4.52,2.19,8.93,4.21,13.06,1.01,2.06,2.21,4.04,3.63,5.84.72.91,1.49,1.77,2.34,2.57.41.39.85.75,1.3,1.1.42.33.86.62,1.31.91.02.01.05,0,.07,0,.48,1.94,1.02,3.86,1.63,5.76,1.48,4.55,3.34,8.94,5.66,13.11.19.33.39.66.58.99-2.05-.96-4-2.14-5.81-3.5,0,0,.02.01.02.02-.02-.02-.05-.03-.07-.05,0,0-.02-.01-.03-.02,0,0,0,0,0,0,0,0-.01,0-.02-.01-3.13-2.42-5.86-5.32-8.3-8.42-2.78-3.6-5.18-7.51-6.98-11.68.01.03.02.06.03.09-.07-.17-.15-.34-.22-.51-.04-.1-.08-.18-.18-.23-.07-.04-.15-.06-.23-.04-.02,0-.04,0-.06.01-.18.05-.34.27-.26.46,1.09,2.6,2.37,5.1,3.82,7.51.79,1.32,1.65,2.61,2.53,3.88.93,1.32,1.91,2.6,2.95,3.84,2.03,2.42,4.31,4.66,6.82,6.57,1.15.88,2.36,1.69,3.63,2.38.64.35,1.3.67,1.97.94.31.12.62.24.93.35.15.05.3.1.46.14,1.91,3.1,4.07,6.05,6.52,8.75,3.15,3.45,6.56,6.66,10.07,9.73,3.39,2.96,6.94,5.73,10.45,8.55,4.49,3.6,8.96,7.23,13.19,11.12-.83-.29-1.67-.55-2.52-.78,0-.02,0-.03,0-.05-.04-.12-.11-.19-.22-.27-1.01-.74-2.07-1.41-3.16-2.03-1.14-.66-2.32-1.24-3.53-1.75-1.09-.46-2.21-.86-3.35-1.18-1.28-.37-2.6-.63-3.92-.81-.06,0-.11-.01-.16,0-.05,0-.09.02-.14.05-.08.05-.14.13-.17.23-.05.19.07.43.28.46,2.13.31,4.19.9,6.18,1.7-.01,0-.02-.01-.03-.02,1.27.53,2.51,1.13,3.72,1.79.76.42,1.51.88,2.24,1.34-1.17-.25-2.35-.46-3.54-.61-1.84-.23-3.71-.33-5.56-.27-1.69.05-3.37.26-5.04.54-.03-.06-.05-.12-.1-.16-.06-.06-.13-.1-.22-.13-1-.39-2.03-.71-3.08-.94-.98-.22-1.99-.35-2.99-.45-2.22-.23-4.46-.21-6.68-.21-.01,0-.03,0-.04,0-.19.02-.33.19-.33.39,0,.21.17.37.38.37,2.23,0,4.46.01,6.68.27,1.66.21,3.28.58,4.85,1.14-1.88.39-3.74.9-5.58,1.45-2.03.6-4.06,1.25-6.1,1.85-1.76.52-3.54.96-5.34,1.3-.02-.02-.02-.05-.05-.07-1.07-.55-2.19-1-3.32-1.38-1.19-.41-2.41-.72-3.64-1-.05,0-.09-.01-.14,0-.15.02-.28.12-.32.28-.05.19.07.41.27.46.87.2,1.74.42,2.61.67.83.25,1.65.53,2.46.85.3.12.59.27.89.41-.89.14-1.79.25-2.69.3.04,0,.07,0,.11,0-2.03.1-4.04-.03-6.02-.43-1.58-.35-3.1-.86-4.58-1.52-.05-.03-.11-.03-.17-.03-.14.02-.27.13-.31.25-.07.21.05.4.23.48,1.5.68,3.05,1.21,4.67,1.57,1.44.32,2.91.48,4.38.52,1.13.03,2.26-.03,3.39-.14-1.2.69-2.41,1.36-3.68,1.92.03,0,.06-.02.09-.03-.76.33-1.53.63-2.31.9-.2.07-.32.26-.26.47.06.19.27.32.47.25,1.25-.43,2.46-.94,3.65-1.52,1.32-.65,2.58-1.39,3.83-2.16.02-.01.02-.04.04-.05,1.18-.18,2.35-.39,3.51-.65,2.97-.67,5.88-1.56,8.82-2.32,1.29-.34,2.6-.64,3.91-.91-1.14.65-2.22,1.39-3.26,2.19-2.48,1.9-4.76,4.05-7.16,6.05-.16.14-.13.41,0,.54.07.07.17.11.27.11.11,0,.18-.05.27-.12,1.84-1.53,3.63-3.12,5.5-4.61,0,0,0,0-.01.01,1.11-.88,2.27-1.71,3.46-2.47,1.19-.76,2.43-1.42,3.72-2,.19-.08.4-.14.59-.22.58-.07,1.16-.13,1.75-.17,3.08-.15,6.16.1,9.19.69,1.6.33,3.17.76,4.71,1.28-1.65.55-3.29,1.12-4.9,1.76-2.52,1-4.97,2.17-7.3,3.55-.18.1-.24.34-.13.52.11.18.34.23.52.13,1.51-.89,3.06-1.67,4.65-2.38,0,0-.01,0-.02.01,2.78-1.21,5.66-2.16,8.54-3.08.97.37,1.93.77,2.87,1.22,1.65.83,3.19,1.83,4.66,2.94,1.15,1.27,2.27,2.57,3.35,3.91,2.18,2.72,4.17,5.6,5.96,8.6,1.33,2.29,2.57,4.64,3.74,7.01-1.22-.36-2.47-.6-3.73-.75-.36-.04-.72-.04-1.08-.06-.03-.09-.08-.17-.17-.22-1.41-.71-2.84-1.38-4.33-1.93-.72-.26-1.46-.48-2.21-.66-.78-.19-1.59-.3-2.4-.37-.02,0-.04,0-.06,0-.08.01-.16.06-.21.11-.07.07-.11.17-.11.27,0,.1.04.2.11.27.08.07.17.1.27.11.17.01.34.03.5.05.83.11,1.64.27,2.44.49.81.22,1.6.51,2.37.82.75.31,1.48.67,2.21,1.02-.5.01-.99.02-1.49.05-.75.05-1.51.13-2.26.23-.69.09-1.39.2-2.08.32-1.03.17-2.05.41-3.06.65-.04-.04-.08-.09-.14-.11-1.07-.24-2.15-.46-3.24-.6-1.03-.14-2.08-.19-3.13-.15-.01,0-.02,0-.03,0-.19.02-.34.18-.34.38,0,.21.18.38.39.37.46-.01.92-.01,1.38,0,.46.01.92.06,1.37.11-.04,0-.07,0-.1-.02.79.09,1.56.23,2.33.39-1.31.33-2.61.68-3.9,1.04-2.74.77-5.47,1.58-8.25,2.2-.2.05-.34.24-.3.45.04.2.24.34.44.3,3.01-.66,5.98-1.45,8.98-2.14.95-.22,1.9-.42,2.85-.6-1.13.66-2.27,1.3-3.46,1.83-.57.24-1.14.46-1.73.65-.7.23-1.43.39-2.16.5-.09.01-.18.1-.22.18-.05.08-.06.19-.03.29.02.09.09.17.18.22.1.06.19.05.29.03.37-.05.73-.13,1.1-.2.45-.1.89-.24,1.32-.38.73-.24,1.43-.54,2.13-.86,1.5-.69,2.92-1.56,4.35-2.42.07-.04.11-.12.14-.19,1.44-.23,2.9-.41,4.36-.51,1.3-.07,2.59-.05,3.88.05-.38.28-.75.56-1.14.82-.75.5-1.54.93-2.37,1.3-.08.04-.15.14-.17.23-.03.1-.02.21.04.29.05.09.14.15.23.17.11.03.19,0,.29-.04.74-.34,1.45-.72,2.14-1.15.73-.46,1.43-.98,2.11-1.51.7.08,1.41.18,2.1.32.83.18,1.65.4,2.46.67.87.29,1.71.65,2.54,1.04.08.04.15.08.22.12.8,1.76,1.57,3.54,2.29,5.33,1.1,2.75,2.09,5.54,3.01,8.36.47,1.43.9,2.85,1.32,4.29.45,1.56.87,3.13,1.32,4.69.16.37.39.68.72.93.48.37,1.09.54,1.7.46,1.19-.16,2.2-1.35,1.98-2.58-.51-2.76-1.27-5.47-2.08-8.16Z"/>
          </g>
          <g>
            <path class="cls-32" d="M542.32,292.54c-.07-4.03-.44-8.04-1.11-11.91-.17-1.04-.4-1.99-.7-2.91-.4-1.26-.91-2.46-1.25-3.26-.92-2.16-1.97-4.14-3.13-5.91-1.45-2.23-2.87-3.8-4.45-4.93-.43-.31-1.31-.87-2.4-1.06-.3-.06-.6-.09-.91-.09-.13,0-.25,0-.38.02-.29.03-.57.07-.85.15-.28.08-.54.2-.8.33-.43.2-.81.51-1.17.81l-.14.13c.07-.58.05-1.2.02-1.78-.11-2.39-.41-5.49-1.69-8.25-.24-.51-.53-.98-.86-1.4-.2-.27-.41-.52-.64-.76-.25-.25-.56-.48-.85-.69-.41-.3-.92-.54-1.56-.74-.5-.16-1.05-.24-1.6-.24-.18,0-.37,0-.55.03-3.05.31-5.06,2.82-6.2,4.87l.04-.43-.05-.46c-.27-2.55-.71-5.88-1.7-9.06-1.02-3.26-2.37-5.53-4.15-6.97-1.07-.87-2.36-1.47-3.81-1.78-.53-.11-1.02-.16-1.48-.16-.87,0-1.69.17-2.43.52-2.11.95-3.42,3.25-3.91,6.82l-.02.27c-.66-1.44-1.46-2.98-2.43-4.69-1.73-3.07-3.31-5.44-4.99-7.47-2.32-2.84-4.63-4.56-7.06-5.28-.66-.2-1.34-.3-2.05-.3s-1.46.11-2.16.31c-1.43.41-2.86,1.32-4.23,2.71-.99.99-1.83,2.24-2.42,3.59-.6,1.37-.98,2.91-1.15,4.7-.12,1.37-.05,2.84.22,4.77.21,1.47.57,3.04,1.12,4.78.92,2.96,2.25,6.01,4.06,9.34.73,1.35,1.53,2.71,2.37,4-.45-.18-.97-.3-1.66-.42-.8-.13-1.57-.21-2.31-.22h-.3c-.56,0-1.15.04-1.92.15-2.39.33-4.36,1.65-5.26,3.51-1.22,2.48-.45,5.15.12,6.52.84,2.07,2.26,4.08,4.22,5.97-.13-.09-.27-.09-.43-.09-.53,0-1.08.05-1.85.16-.71.1-1.43.32-2.33.71-1.39.59-2.6,1.66-3.44,3.01-.38.62-.64,1.37-.82,1.92-.17.52-.3,1.08-.4,1.72-.17,1.18-.15,2.37.07,3.64.18,1.01.55,2.03,1.15,3.23.93,1.89,2.41,3.71,4.52,5.56,1.83,1.61,4.01,3.1,6.68,4.57,1.49.82,3.01,1.57,4.65,2.29.77.68,1.57,1.35,2.37,2.01,2.08,1.72,4.27,3.42,6.69,5.2,4.97,3.67,9.69,6.62,14.4,9.05,2.42,1.25,5.02,2.4,7.71,3.44,2.36.9,4.8,1.62,7.26,2.12,2.33.47,4.55.71,6.59.71.22,0,.43,0,.65,0,2.42-.07,4.66-.46,6.65-1.17.22-.08.45-.17.66-.25h0s-.07-.28-.07-.28c-.22-.88-.46-1.72-.7-2.56-.3-1.01-.61-2.02-.93-3.02l4.41-1.92c.3.97.59,1.93.87,2.91l.15.51c.18.64.36,1.29.55,1.91.4-.27.76-.56,1.13-.88.79-.7,1.52-1.5,2.25-2.44.88-1.14,1.59-2.24,2.19-3.35,1.43-2.69,2.44-5.77,3.1-9.44.66-3.76.94-7.81.86-12.4Z"/>
            <path class="cls-15" d="M475.23,233.17c-.08,0-.16.02-.25.07-.25.13-.35.45-.22.73,2.71,5.61,6.12,11.27,10.44,17.31,1,1.39,2.02,2.75,3.06,4.1l-.79-.55-1.73-1.12-.96-.63-.98-.64c-1.7-1.11-2.98-2.01-4.15-2.89-1.32-1.02-2.46-1.98-3.48-2.94-.68-.63-1.35-1.32-2-2.05-.45-.51-.89-1.02-1.3-1.55l-.15-.21-.15-.2c-.08-.12-.21-.18-.34-.18-.07,0-.12.01-.17.05-.09.04-.16.15-.18.26-.02.07-.02.14.01.22l.47.62c.29.37.59.74.89,1.1.26.32.53.63.79.93.69.81,1.48,1.63,2.56,2.68.89.88,1.87,1.76,2.99,2.7.77.65,1.61,1.32,2.53,2.04.82.64,1.66,1.28,2.55,1.94.63.47,1.29.95,1.97,1.43.44.31.89.63,1.36.95l.92.64.42.28.22.15.46.31,1.01.69.52.36.22.15.17.12.35.43c1.54,1.87,3.02,3.67,4.52,5.46l.21.25.25.3.2.24,1.54,1.83c1.18,1.43,2.37,2.87,3.54,4.33l.34.42c.32.39.63.78.94,1.17-.72-.33-1.56-.64-2.48-.94-1.04-.34-2.17-.63-3.43-.89l-.73-.15c-1.5-.28-3-.53-4.51-.77-.69-.11-1.37-.21-2.06-.31l-.59-.09-1.64-.24c-1.51-.23-3.01-.47-4.51-.76-1.57-.3-3-.63-4.37-1.01-1.48-.42-2.82-.87-4.11-1.39-1.03-.44-2.04-.94-3.01-1.47-.65-.36-1.26-.73-1.85-1.12-.04-.03-.11-.05-.17-.05-.15.01-.28.08-.33.2-.12.2-.02.4.13.52l.75.49c.5.32,1,.62,1.52.91.5.28,1.02.56,1.54.81.66.33,1.36.64,2.13.95.55.22,1.11.44,1.73.66,2.85,1.02,5.79,1.71,8.54,2.3l2.11.46,2.11.45c1.05.23,1.94.42,2.76.62.58.14,1.12.27,1.67.42,2.76.72,5.48,1.61,8.09,2.67,1.39.57,2.73,1.24,4.01,1.98l.19.27c3.59,4.95,6.87,10.2,9.77,15.61,2.73,5.08,5.15,10.39,7.21,15.78,1.27,3.39,2.44,6.86,3.45,10.33.25.85.49,1.69.7,2.56l.07.28c.78,2.86,1.5,5.83,2.12,8.39.24,1.01,1.17,1.75,2.21,1.75.18,0,.35-.02.51-.06.58-.14,1.09-.5,1.41-1.01.3-.48.4-1.06.29-1.7-.57-3.11-1.3-6.32-2.24-9.82-.2-.63-.38-1.27-.56-1.92l-.15-.51c-1.16-4.03-2.49-7.96-4.06-12.01-.81-2.09-1.72-4.27-2.7-6.48l-.26-.57c.39-.04.75-.28.95-.63,2.12-3.85,3.28-8.6,3.45-14.13.03-1.12.05-2.24.04-3.36-.01-1.22-.02-2.43-.06-3.65-.04-1.51-.05-2.64-.02-3.68.03-1.13.13-2.38.28-3.71.01-.08-.02-.16-.08-.24-.08-.08-.19-.13-.3-.13-.2,0-.35.14-.38.38-.26,2.08-.44,4.18-.61,6.21l-.12,1.44c-.04.41-.07.82-.09,1.22l-.03.61-.11,1.35-.05.73v.17c-.07.69-.12,1.31-.18,1.86-.05.42-.09.81-.15,1.18l-.06.47c-.18,1.58-.4,2.93-.71,4.27-.33,1.45-.76,2.82-1.27,4.07-.21.48-.43.96-.67,1.44-.22.44-.47.88-.73,1.32l-.28.49c-2.07-4.25-4.42-8.32-6.96-12.11l-.14-.21c.3-1.73.48-3.32.58-5,.13-2.22.05-4.45-.04-6.34l-.11-2.14c-.09-1.45-.17-2.82-.21-4.19-.06-2.18.03-4.33.26-6.21.23-1.65.55-3.2.95-4.6.02-.08.01-.17-.02-.25-.13-.16-.21-.2-.34-.23h0c-.17,0-.32.11-.37.28-.3,1.02-.55,2.04-.77,3.15-.25,1.24-.41,2.55-.5,3.26-.21,1.8-.34,3.65-.47,6.62-.06,1.34-.09,2.67-.13,4-.05,2.18-.11,4.86-.37,7.5-.05.59-.11,1.15-.18,1.72-.31-.47-.66-.95-1.02-1.43-1.47-1.98-3.02-3.94-4.75-6-1.86-2.22-3.77-4.24-5.73-6.28,0-1.07-.03-2.08-.11-3.07-.11-1.5-.32-3.08-.65-4.97-.21-1.22-.45-2.43-.69-3.66l-.21-1.08c-.33-1.7-.6-3.28-.85-4.98-.39-2.94-.45-5.57-.18-7.82.08-.54.17-1.09.28-1.63.02-.1,0-.2-.05-.27,0,0,0,0-.11-.11-.06-.04-.12-.06-.2-.08-.19,0-.34.12-.38.27-.31,1.52-.5,3.1-.56,4.68-.05,1.39,0,2.92.15,4.7l.03.36c.12,1.35.32,2.77.5,4l.02.18.07.49c.1.73.21,1.46.33,2.2.15.95.29,1.91.41,2.75.11.77.21,1.54.29,2.32.09.8.15,1.6.2,2.4l.02.21c.02.4.03.78.01,1.19v.28s-.36-.41-.36-.41l-1.04-1.06c-4.22-4.33-8.68-8.96-12.71-13.79-1.62-1.94-3.03-3.75-4.33-5.52l-.15-.21c-.59-.84-1.14-1.61-1.66-2.39-1.41-2.09-2.72-4.22-3.9-6.33-.72-1.29-1.41-2.62-2.06-3.96-.08-.17-.27-.28-.48-.28"/>
          </g>
          <g>
            <path class="cls-43" d="M351.07,308.5c-.28-.15-.57-.28-.88-.37-.35-.11-.73-.15-1.1-.17-.07,0-.14,0-.21,0-.3,0-.6.03-.9.09-.47.09-.86.3-1.25.56-1.09.73-1.33,2.2-.97,3.39.11.34.22.66.38.98s.38.62.59.92c.4.56.95,1.04,1.51,1.44.44.31.95.56,1.46.73.06.02.11.04.17.05.43.29.92.52,1.42.65.62.16,1.27.14,1.86-.09.67-.27,1.21-.75,1.53-1.4.59-1.21.09-2.69-.57-3.77-.75-1.21-1.79-2.33-3.06-2.99Z"/>
            <path class="cls-44" d="M348.02,298.54c.28-.06.54-.18.76-.37.1-.08.18-.17.25-.27.29-.23.44-.63.48-.99.04-.33-.06-.66-.16-.96-.12-.38-.29-.73-.48-1.07-.46-.82-1.28-1.42-2.11-1.82-.46-.22-.93-.37-1.43-.47-.32-.06-.63-.08-.94-.08-.17,0-.35,0-.53.02-.34.02-.7.31-.89.59-.2.3-.26.65-.21,1.01.07.48.18.95.4,1.4.25.51.64.96,1.05,1.34.85.78,1.87,1.35,3,1.64.26.09.53.11.81.06Z"/>
            <path class="cls-45" d="M329.62,290.86c-.28-.39-.67-.71-1.05-.98-.4-.29-.89-.49-1.36-.63-.12-.04-.24-.06-.36-.06-.25,0-.5.09-.7.26-.3.26-.4.63-.35,1.01.04.39.16.75.31,1.11.14.36.38.69.6,1.01.23.32.52.6.82.85.29.25.59.46.93.63.28.15.53.24.85.18.14-.02.27-.07.39-.15.15.03.28.03.44-.04.2-.09.36-.31.37-.54.02-.48-.03-.93-.2-1.39-.17-.46-.4-.86-.69-1.26Z"/>
            <path class="cls-46" d="M586.31,280.78c-.45-.27-.76-.39-1.28-.51-.24-.06-.47-.07-.7-.07-.11,0-.21,0-.33,0-.67,0-1.34.22-1.96.46-.47.18-.91.47-1.34.72-.38.23-.75.5-1.1.78-.76.61-1.47,1.33-2.03,2.12-.28.4-.53.83-.73,1.29-.11.25-.17.57-.22.82-.07.31-.05.57-.05.9,0,.15.03.28.06.43.07.32.16.67.31.97.11.23.27.52.45.73.35.43.64.62,1.13.87.82.43,1.88.32,2.72-.03.3-.06.6-.14.89-.24.62-.21,1.21-.56,1.76-.9.59-.37,1.13-.82,1.63-1.31.48-.47.94-.97,1.33-1.52.43-.61.73-1.26.91-1.98.3-1.27-.33-2.85-1.46-3.53Z"/>
            <path class="cls-31" d="M598.7,277.85c-.12-.15-.27-.27-.46-.35-.13-.05-.27-.07-.4-.07-.05,0-.09,0-.14,0-.3,0-.6.03-.89.11-.16-.02-.32.02-.47.12-.11.07-.22.15-.33.22-.18.1-.36.23-.53.36-.17.13-.33.28-.48.43-.2.19-.4.39-.58.6-.08.1-.16.2-.23.31-.12.15-.24.3-.36.45-.25.3-.3.71-.19,1.07-.02.16-.04.32-.04.48-.02.5.34.85.83.82.46-.03.9-.09,1.34-.24.47-.15.9-.38,1.3-.66.4-.29.75-.69,1.03-1.09.32-.46.55-.98.75-1.51.14-.36.09-.75-.15-1.06Z"/>
            <path class="cls-34" d="M495.28,157.72c-.51-.47-1.17-.67-1.83-.82-.18-.04-.35-.05-.53-.05-.52,0-1.04.14-1.52.3-.56.18-1.09.54-1.56.89-.56.43-1.05.98-1.49,1.53-.37.45-.67.95-.96,1.46-.37.66-.7,1.31-.96,2.02-.22.6-.38,1.25-.47,1.89-.03.22-.04.44-.03.67,0,.38,0,.75.1,1.12.04.17.09.35.15.52.07.56.31,1.09.62,1.56.37.56.97.93,1.56,1.21.53.25,1.15.28,1.73.23.53-.05,1.07-.26,1.53-.51.58-.32,1.11-.72,1.59-1.19,1.04-1.02,1.84-2.21,2.51-3.51.29-.55.52-1.13.71-1.72.2-.63.35-1.31.38-1.98.03-.68-.07-1.27-.27-1.92-.22-.67-.74-1.23-1.25-1.69Z"/>
            <path class="cls-33" d="M503.79,147.17c-.14-.07-.3-.11-.46-.11-.1,0-.2.01-.3.04-.43.13-.84.28-1.23.5-.19.11-.38.28-.54.43-.14.12-.25.25-.37.39-.25.31-.46.67-.6,1.05-.02.07-.05.13-.07.19-.09.18-.15.36-.17.56,0,.03,0,.06,0,.09-.04.25-.05.5-.07.76-.02.3.19.65.4.85.17.15.36.24.57.29.21.05.42.04.63-.03.3-.05.59-.16.85-.32.02,0,.05-.01.07-.02.44-.1.82-.33,1.15-.63.37-.35.59-.86.7-1.35.16-.69.06-1.41-.07-2.1-.05-.25-.29-.49-.51-.59Z"/>
            <path class="cls-35" d="M467.01,161.67c-.14-.08-.3-.13-.46-.18-.15-.05-.36-.06-.51-.06-.01,0-.03,0-.04,0-.17,0-.33.03-.5.06-.66.12-1.28.53-1.67,1.07-.29.39-.47.8-.6,1.27-.07.24-.08.52-.09.75,0,.23.01.45.04.67.05.34.15.63.41.87.25.22.57.34.91.32.18,0,.36-.02.54-.07.17-.04.37-.1.53-.18.03-.01.06-.02.08-.04.44-.2.79-.5,1.12-.86.2-.22.35-.47.52-.72.13-.19.24-.39.33-.6.25-.58.32-1.35-.11-1.87-.17-.2-.28-.31-.5-.44Z"/>
          </g>
          <g>
            <path class="cls-36" d="M460.14,282.1c1.15,0,2.29,0,3.44.01.19,0,.4-.11.57-.24-1.34.07-2.67.14-4.01.22"/>
            <path class="cls-52" d="M408.7,290.82s-.01,0-.02,0c.01,0,.02,0,.03,0,0,0,0,0,0,0"/>
            <polygon class="cls-38" points="408.62 290.84 408.62 290.84 408.62 290.84 408.62 290.84"/>
            <path class="cls-53" d="M403.63,292.37s.09-.03.13-.05c-.05.01-.09.03-.13.05"/>
            <path class="cls-51" d="M672.37,457.19c-34.84-14.69-32.91-44.58-35.36-62.06l-.8,1.99c-.04-1.54-.07-2.99-.09-4.4,0-.41-.08-.72-.28-.99-.21-.27-.5-.44-.81-.47-1.5-3.81-3.37-7.4-5.54-10.64-2.32-3.45-5.19-6.82-8.52-10-1.46-1.4-3.04-2.77-4.83-4.18-1.9-1.52-3.62-2.75-5.27-3.77-2.46-1.56-5.09-2.93-7.41-4.15-1.33-.7-2.67-1.41-3.99-2.13-2.5-1.39-4.5-2.67-6.33-4.03-2.27-1.76-4.19-3.64-5.83-5.77-1.84-2.48-3.37-5.2-4.77-8.41-.45-1.09-.89-2.19-1.29-3.32-1.77-5.93-2.76-12.23-3.73-18.31-.23-1.49-.47-2.98-.72-4.45-.65-3.95-1.5-8.62-2.82-13.22-.79-2.77-1.72-5.36-2.79-7.75-2.61-1.67-5.31-3.15-8.05-4.52.01,0,.02.01.03.02-7.11-3.5-14.52-6.19-22.01-8.33-7.71-2.2-15.52-3.85-23.38-5.1h.02c-12.63-1.97-25.39-2.9-38.13-2.91h-.15c-12.9,0-25.79.91-38.57,2.89h.01c-8.02,1.26-15.99,2.93-23.84,5.21-7.25,2.11-14.42,4.69-21.32,8.05-.35.25-.69.51-1.04.76-1.46,1.1-2.94,2.31-4.39,3.6-.21.19-.43.43-.51.82-.07.35-.02.72.15,1.03-1.76,1.69-3.25,3.47-4.43,5.27-.66.94-1.3,1.91-1.91,2.89-.57.9-1.12,1.81-1.68,2.72-1.8,2.94-3.67,5.98-5.88,8.6-.92,1.05-1.81,1.95-2.73,2.75-.91.78-1.97,1.59-3.22,2.47l-.13.15h0c-1.88,1.21-3.82,2.32-5.68,3.4-1.51.86-2.9,1.67-4.27,2.53-1.84,1.13-3.44,2.26-4.89,3.44-1.54,1.25-3,2.72-4.33,4.38-1.09,1.36-2.16,3.01-3.19,4.91-.88,1.64-1.64,3.34-2.25,5.07-1.11,3.12-1.82,6.58-2.11,10.28-.52,6.42.27,12.9,1.12,18.97l.39,2.75c.74,5.18,1.5,10.52,1.57,15.87l.06-.34c-.03,3.49-.32,6.53-.9,9.3l-.03.22c-.56,2.33-1.34,4.58-2.35,6.69-1.12,2.21-2.52,4.33-4.17,6.3-2.21,2.55-4.64,4.74-7.22,6.54-2.59,1.72-5.5,3.16-8.86,4.37,0,0-.02,0-.03,0-.47.17-.96.34-1.45.5-.03,0-.06.04-.09.07-32.07,12.02-80.88,45.28-35.57,103.9l25.54-.68v-.07c.39.74.8,1.49,1.25,2.27,2.01,3.47,4.72,6.72,8.05,9.65,2.76,2.44,6.06,4.59,10.1,6.58,8.05,3.97,16.91,5.61,24.57,6.85,9.93,1.6,20.66,2.78,32.81,3.59,9.99.66,20.55,1.03,33.22,1.16,3.51.04,7.02.06,10.52.06,1.98,0,3.97,0,5.94-.02,2.28,0,4.55-.02,6.83-.04h1.95c2.59-.03,5.19-.05,7.79-.05,13.12.01,26.46.33,39.36.64h.43s1.36.04,1.36.04c8.84.21,17.98.43,26.96.54,3.94.05,7.88.08,11.82.08,21.63,0,39.35-.86,55.75-2.7,1.07-.12,2.12-.24,3.18-.37l.29-.04,2.89-.33,2.97-.33,2.96-.32c2.76-.31,6.9-.82,10.96-1.63,3.61-.73,6.82-1.7,9.83-2.98,3.04-1.27,5.85-3.04,8.34-5.25,2.49-2.21,4.62-5.07,6.35-8.5,0,0,42.56,32.57,64.26,3.19,21.7-29.39,5.14-66.12-29.7-80.81Z"/>
            <path class="cls-37" d="M389.71,298.12c-1.01,1.85-2.07,3.67-3.18,5.46.05-.09.11-.17.16-.26-3.71,5.91-8,11.52-13.14,16.27.07-.07.15-.13.22-.2-2.24,2.06-4.64,3.95-7.24,5.55-.53.33-.61,1.11-.27,1.59.37.53,1.05.6,1.58.27,2.82-1.74,5.39-3.82,7.81-6.08,2.57-2.41,4.92-5.06,7.1-7.83,2.21-2.81,4.21-5.75,6.1-8.79,1.54-2.47,2.97-5.02,4.29-7.62-1.15.52-2.3,1.07-3.43,1.64"/>
            <path class="cls-54" d="M395.44,295.48s0,0,0,0c-.73.31-1.46.63-2.18.96.26.1.55.11.81-.02,1.56-.8,3.14-1.57,4.74-2.29-1.13.44-2.26.89-3.37,1.36"/>
            <path class="cls-42" d="M395.47,295.46s-.02.01-.03.01c.01,0,.02,0,.03-.01.01,0,.02-.01.03-.02-1.76.75-3.51,1.55-5.23,2.4-.05.32.02.67.21.91.18.24.45.4.74.44.33.05.59-.05.85-.22.63-.39,1.27-.77,1.91-1.13,0,0,0,0,0,0,3.75-2.11,7.7-3.84,11.77-5.27.47-.17.73-.66.7-1.14-3.71,1.18-7.38,2.51-10.97,4.02"/>
            <path class="cls-40" d="M393.98,297.84s.01,0,.02-.01c0,0-.02,0-.02.01"/>
            <path class="cls-39" d="M395.47,295.46s-.02.01-.03.01c.01,0,.02,0,.03-.01.01,0,.02-.01.03-.02-.57.25-1.15.5-1.72.75-.05.22-.03.46.06.67.11.27.33.49.6.61.25.11.63.15.88.01,2.02-1.15,4.17-2.03,6.41-2.63.27-.07.51-.36.62-.6.12-.28.12-.6,0-.89-.07-.17-.19-.33-.33-.44-2.21.79-4.4,1.63-6.56,2.54"/>
            <path class="cls-41" d="M395.82,295.32c.31.2.7.26,1.04.1,3.76-1.81,7.62-3.46,11.66-4.55-.04,0-.07.02-.11.02.05-.01.1-.02.14-.03-.01,0-.02,0-.04,0,.03,0,.06-.01.09-.02,0,0,0,0,0,0t0,0s0,0,0,0c0,0,.02,0,.02,0,0,0-.02,0-.02,0,0,0,.02,0,.03,0,0,0,.02,0,.03,0h0s.02,0,.02,0c0,0,.01,0,.02,0,0,0,0,0,0,0,1.51-.37,3.04-.67,4.59-.86.44-.05.8-.37.94-.78-6.26,1.66-12.43,3.65-18.41,6.14"/>
            <path class="cls-48" d="M569.53,294.91c-.58.19-1.08.66-1.37,1.28-.25.55-.39,1.38-.18,1.98,1.66,4.88,2.73,9.98,3.96,15.02,1.02,4.23,2.31,8.36,4.16,12.19,2.7,5.59,6.5,10.38,10.7,14.46,8.42,8.2,18.55,13.4,27.75,20.22,1.47,1.09,2.92,2.23,4.33,3.43-.05-.04-.1-.09-.16-.13,3.5,3,6.78,6.4,9.51,10.37,1.85,2.76,3.41,5.75,4.63,8.95,0,0,0-.01,0-.02,0,.02.01.04.02.05.02.06.04.11.06.17,0-.01-.01-.03-.02-.05,1.17,3.25,1.98,6.66,2.43,10.15-.01-.07-.02-.15-.03-.22.1.8.19,1.61.25,2.41.04.46.33.84.75.83.37,0,.75-.41.71-.87-.3-3.48-.86-6.93-1.77-10.27-.83-3.03-1.95-5.93-3.34-8.67-2.66-5.26-6.3-9.75-10.32-13.63-4.17-4.03-8.71-7.48-13.25-10.9-4.49-3.37-9.03-6.67-13.35-10.32-4.11-3.53-8.02-7.41-11.26-12.04-2.07-3.07-3.82-6.41-5.19-9.97-1.33-3.65-2.09-7.48-2.85-11.33-.81-4.12-1.76-8.23-3.58-11.92-.4-.81-1.17-1.28-1.95-1.28-.2,0-.41.03-.61.1M578.33,318.84c.06.15.12.3.17.46-.06-.15-.12-.3-.17-.46M583.43,328.9c.07.1.14.2.21.3-.07-.1-.14-.2-.21-.3M632.9,382.83s-.03-.08-.04-.12c0-.01,0-.02-.01-.04.02.05.04.1.06.15"/>
            <path class="cls-47" d="M390.27,291.46c-2.32,3.74-4.66,7.47-7.2,11.01-2.48,3.46-5.16,6.74-8.08,9.7-1.63,1.63-3.33,3.14-5.12,4.52-1.65,1.27-3.37,2.41-5.1,3.5-1.7,1.07-3.42,2.1-5.13,3.12-1.7,1.01-3.38,2.08-5.03,3.18-3.37,2.24-6.55,4.85-9.34,8.01-1.48,1.67-2.78,3.54-3.94,5.53-1,1.7-1.88,3.49-2.62,5.36-1.44,3.61-2.34,7.49-2.8,11.42-.46,3.94-.5,7.93-.35,11.89.3,7.77,1.4,15.47,1.95,23.23.25,3.52.37,7.06.18,10.59-.22,3.22-.74,6.39-1.62,9.45-.88,2.78-2.03,5.43-3.44,7.9-.85,1.38-1.82,2.63-2.8,3.88-.46.58-.5,1.47-.14,2.13.22.39.56.66.94.75.36.09.83.03,1.13-.25,1.5-1.38,2.85-2.96,4.14-4.61,1.2-1.55,2.26-3.27,3.16-5.08.88-1.77,1.53-3.65,2.1-5.59.52-1.73.88-3.53,1.14-5.34.29-2.01.43-4.04.5-6.06.07-1.88.02-3.76-.07-5.63-.2-3.86-.67-7.68-1.19-11.5-1.05-7.71-2.28-15.48-1.88-23.33.22-3.34.76-6.62,1.69-9.79.8-2.52,1.84-4.91,3.12-7.15-.03.06-.07.12-.11.18.04-.07.09-.15.13-.22.05-.08.09-.16.14-.25-.04.07-.07.13-.11.19,1.6-2.64,3.48-5.01,5.58-7.13,2.81-2.75,5.92-5.06,9.08-7.23,3.31-2.28,6.64-4.54,9.79-7.1,3.48-2.83,6.66-6.13,9.56-9.75,2.92-3.66,5.52-7.64,8.07-11.67,1.49-2.35,2.94-4.72,4.4-7.09.16-.26.18-.59-.03-.81-.09-.09-.22-.15-.34-.15s-.26.06-.34.19M374.91,312.26s-.05.05-.07.07c.02-.02.05-.05.07-.07M341.27,349.67s-.03.1-.05.15c.02-.05.03-.1.05-.15M344.48,342.26s-.02.03-.02.04c.02-.03.04-.06.05-.09-.01.02-.02.03-.03.05"/>
            <polyline class="cls-16" points="349.97 431.26 349.97 431.26 349.97 431.25 349.97 431.26"/>
            <path class="cls-49" d="M636.04,532.7c-.27-1.05-.55-2.1-.87-3.13-.32-1.01-.65-2.01-1.01-3.01-.82-2.18-1.62-4.07-2.47-5.77-.9-1.82-1.84-3.48-2.87-5.08-.9-1.34-1.77-2.48-2.65-3.47-.43-.48-.86-.95-1.3-1.4-.43-.43-.87-.85-1.31-1.26-1.42-1.28-2.9-2.46-4.39-3.5-1.42-.99-2.87-1.92-4.33-2.78-2.06-1.22-4.2-2.37-6.26-3.49l-.2-.11-2.52-1.36c-1.47-.81-2.95-1.63-4.39-2.51-1.26-.77-2.75-1.7-4.15-2.74-1.37-1-2.53-1.95-3.54-2.89-1.4-1.3-2.46-2.46-3.36-3.63-.57-.74-1.01-1.36-1.39-1.96-.34-.53-.85-1.34-1.28-2.2-.53-1.06-.88-1.88-1.17-2.67-.25-.71-.57-1.64-.8-2.61-.12-.53-.25-1.06-.34-1.59-.09-.53-.17-1.07-.24-1.61-.1-.75-.17-1.52-.2-2.29-.06-1.26-.07-2.31-.02-3.29.04-.93.1-1.86.2-2.78.2-1.97.47-3.9.82-5.75.38-2.1.81-4.18,1.25-6.27l.22-1c.38-1.76.76-3.52,1.1-5.28.44-2.26.77-4.31,1.01-6.25.22-1.91.33-3.47.34-4.91v-.25c0-.66,0-1.31-.04-1.96-.04-.69-.09-1.38-.17-2.06-.18-1.43-.4-2.64-.7-3.82-.17-.69-.34-1.37-.56-2.04-.15-.48-.31-.96-.49-1.43-.28-.76-.73-1.89-1.29-2.96-.28-.54-.56-1.08-.87-1.59-.22-.37-.44-.73-.68-1.08-.84-1.25-1.71-2.37-2.58-3.33-.47-.51-.94-1.02-1.44-1.51-.48-.47-.97-.94-1.46-1.39-1.89-1.68-3.91-3.23-5.86-4.72l-.14-.11-1.1-.84-.13-.1c-1.08-.83-2.31-1.79-3.49-2.79-1.14-.96-2.08-1.81-2.95-2.66-1.41-1.4-2.42-2.52-3.27-3.64-1-1.3-1.78-2.44-2.45-3.59-1.2-2.06-2.17-4.02-2.97-5.99-.77-1.92-1.37-3.64-1.84-5.25-.66-2.27-1.17-4.41-1.56-6.53-.4-2.09-.7-4.09-.94-6.12-.26-2.14-.46-4.28-.6-6.36-.15-2.11-.26-4.22-.35-6.33-.09-2.23-.16-4.45-.23-6.67-.07-2.26-.13-4.47-.22-6.67-.11-2.79-.22-4.92-.36-6.9-.15-2.11-.33-4.09-.55-6.06-.42-3.47-.86-6.07-1.43-8.44-.25-1.04-.51-2.08-.82-3.11-.3-.99-.62-1.97-.97-2.94-.64-1.75-1.29-3.26-1.97-4.61-.69-1.39-1.5-2.79-2.39-4.16-.95-1.43-1.95-2.75-2.97-3.93-.96-1.1-2.02-2.17-3.13-3.2-1.34-1.21-2.76-2.31-4.21-3.28-1.49-1-3.06-1.91-4.67-2.72-2.36-1.16-4.87-2.14-7.44-2.92-2.58-.77-5.33-1.39-8.18-1.86-4.09-.61-8.4-.93-12.82-.93-1.1,0-2.19.01-3.29.05-5.2.16-10.59.69-16.45,1.6-9.61,1.53-19.78,3.99-30.22,7.32-4.44,1.41-8.75,2.91-12.83,4.46-1.8.68-3.59,1.38-5.38,2.1-1.8.73-3.84,1.56-5.78,2.5-2.07,1.03-3.95,2.13-5.58,3.28-.82.56-1.62,1.15-2.4,1.77-.75.6-1.48,1.22-2.2,1.86-1.55,1.42-2.98,2.91-4.25,4.43-1.23,1.48-2.37,3.03-3.41,4.59-1.41,2.16-2.67,4.4-3.75,6.65-1.08,2.23-2.1,4.67-3.04,7.25-2.24,6.18-4.06,13.3-5.73,22.39-.96,5.24-1.8,10.68-2.55,15.48-.41,2.63-.82,5.26-1.25,7.89-.62,3.84-1.18,6.98-1.75,9.88-.71,3.64-1.38,6.66-2.12,9.5-.89,3.42-1.78,6.34-2.72,8.95-1.09,3.03-2.21,5.65-3.4,8.01-1.37,2.68-2.84,5.08-4.36,7.14-1.72,2.33-3.57,4.39-5.5,6.13-2.24,2.02-4.62,3.72-7.05,5.07-1.43.79-2.75,1.44-4.05,1.98-.35.15-.7.29-1.05.43l-.49.19c-.24.09-.48.18-.73.28-.96.38-1.9.79-2.85,1.25-1.28.66-2.28,1.25-3.15,1.87-.55.39-.99.71-1.4,1.05-.31.25-.6.51-.9.77-.57.54-1.31,1.26-1.97,2.06l-.12.15c-.21.26-.41.52-.61.79-.21.3-.42.6-.62.9-.59.93-1,1.66-1.33,2.38-.39.81-.74,1.64-1.06,2.54-.51,1.44-.94,3.02-1.24,4.59-.31,1.56-.57,3.21-.78,5.06-.29,2.63-.47,5.26-.66,8.18l-.12,1.75c-.23,3.34-.49,6.89-.99,10.42-.3,2.12-.61,3.94-.97,5.57-.49,2.24-.97,4.03-1.49,5.62-.62,1.87-1.25,3.54-1.94,5.09-.89,1.97-1.79,3.74-2.75,5.41-1.1,1.87-2.11,3.43-3.09,4.79-1.34,1.85-2.59,3.41-3.85,4.78-1.45,1.58-2.75,2.86-3.97,3.91-1.72,1.49-3.2,2.6-4.64,3.5-1.68,1.05-3.17,1.85-4.58,2.43-.63.26-1.25.51-1.89.72.36.76.76,1.49,1.2,2.24,1.91,3.3,4.46,6.38,7.56,9.2v62.22h311.17v-56.06c.08-.07.16-.13.24-.2,2.04-1.82,3.84-4.07,5.37-6.7-.21-1.28-.49-2.61-.83-3.98Z"/>
            <path class="cls-55" d="M376.37,397.42c-.35,1.46-.76,2.88-1.25,4.27-.77,2.01-1.71,3.91-2.85,5.67-1.18,1.7-2.52,3.21-3.99,4.55-4.43,3.83-9.65,6.16-14.63,8.8-2.66,1.41-5.28,2.94-7.75,4.76-2.72,2.01-5.18,4.46-7.3,7.28-3.28,4.38-5.55,9.61-6.99,15.15-1.43,5.51-2.11,11.26-2.76,16.95v-.06c-.09.84-.19,1.69-.28,2.53.01-.08.02-.16.03-.24-.83,7.26-1.78,14.62-4.2,21.43-1.14,3.14-2.58,6.1-4.37,8.8-.12.17-.23.35-.35.52-.19.27-.23.65,0,.91.2.23.59.28.78,0,2.27-3.3,4.06-6.96,5.42-10.88,1.33-3.84,2.24-7.88,2.95-11.94,1.39-8.1,1.99-16.4,3.95-24.36.52-2.1,1.14-4.16,1.87-6.17,1.03-2.76,2.32-5.36,3.87-7.76,1.45-2.17,3.12-4.13,4.98-5.83,0,0-.02.01-.03.02,2.9-2.56,6.11-4.51,9.45-6.16l-.43.21c5.34-2.63,10.98-4.59,15.97-8.1,2.5-1.77,4.84-3.94,6.75-6.54,1.06-1.45,2.01-3.02,2.82-4.67.89-1.83,1.6-3.79,2.19-5.77.2-.64.36-1.3.53-1.96.34-1.39-.4-2.88-1.59-3.26-.2-.07-.39-.09-.59-.09-.99,0-1.92.78-2.2,1.94M368.64,411.6c-.1.09-.2.18-.3.26.1-.09.2-.18.3-.26M334.63,445.42c-.03.09-.06.18-.1.27.03-.09.07-.18.1-.27M328.87,464.62c0,.06-.01.12-.02.18,0-.06.01-.12.02-.18M324.36,488.6s-.02.05-.03.08c0-.02.02-.05.03-.08M320.09,497.22s-.02.03-.03.05c.01-.02.02-.03.03-.05"/>
            <path class="cls-50" d="M572.74,391.85c-.33,1.38.39,2.88,1.58,3.25,2.76.86,5.48,1.9,8.11,3.19,3.46,1.76,6.77,3.93,9.77,6.62,2.23,2.08,4.27,4.43,6.04,7.06,1.39,2.15,2.55,4.47,3.46,6.95.78,2.3,1.31,4.7,1.62,7.15.9,8.37-.47,16.74-.97,25.07-.25,4.1-.2,8.2.44,12.25.69,4.37,2.27,8.52,4.36,12.22.2.34.57.48.89.27.29-.2.43-.69.23-1.04-.92-1.61-1.71-3.3-2.37-5.09l.07.19c-.9-2.52-1.49-5.16-1.81-7.87,0,.08.02.17.02.24-.52-4.63-.22-9.3.31-13.91.55-4.66,1.31-9.28,1.66-13.97.19-2.42.24-4.85.14-7.28-.1-2.33-.34-4.69-.8-6.97-.83-4.06-2.42-7.91-4.49-11.29-1.07-1.76-2.29-3.4-3.59-4.92-1.33-1.55-2.79-2.93-4.29-4.27-2.57-2.28-5.38-4.19-8.3-5.8-2.98-1.64-6.1-2.98-9.31-3.89-.19-.05-.38-.08-.57-.08-1,0-1.93.73-2.22,1.93M581.99,398.08c.06.03.12.06.18.09-.06-.03-.12-.06-.18-.09M603.34,426.27c0,.05.01.1.02.15,0-.05-.01-.1-.02-.15"/>
            <path class="cls-56" d="M615.95,487.22c-.35.41-.37,1.13,0,1.54,2.59,2.8,5.41,5.3,8.1,7.95,1.36,1.34,2.7,2.71,3.98,4.14,1.21,1.37,2.35,2.84,3.39,4.39.63.98,1.22,1.99,1.76,3.05.62,1.19,1.14,2.44,1.62,3.72.18.36.43.65.75.86.47.33,1.06.42,1.59.24.52-.17.97-.57,1.24-1.11.26-.53.38-1.27.21-1.87-.41-1.35-.92-2.66-1.54-3.9-.59-1.19-1.31-2.3-2.06-3.36-1.41-1.99-3.12-3.61-4.88-5.16-3.37-2.97-7.14-5.26-10.52-8.23-.79-.72-1.56-1.49-2.31-2.27-.19-.21-.43-.32-.68-.32s-.46.1-.65.32M619.41,489.34s.05.04.08.07c-.03-.02-.05-.04-.08-.07M631.26,505c.04.06.08.12.12.19-.04-.06-.08-.12-.12-.19"/>
            <path class="cls-18" d="M442.85,426.77c-.31,0-.65.28-.88.74-.2.4-.3.89-.28,1.37,1.18,25.89,1.08,47.09-.33,66.71l-.03.32c-1.17,15.46-3.2,29.79-6.04,42.68-.11.51-.02,1.18.11,1.63.16.48.4.82.69.97.06.13.1.24.15.35.19.41.43.64.79.76,5.1,1.46,10.27,3.33,15.27,5.14,11.1,4.01,22.57,8.16,34.12,8.16h.31c5.37-.04,10.46-1.04,15.13-3,5.11-2.13,9.98-5.58,14.47-10.24.3-.32.49-.7.59-1.2.1-.52.08-1.11-.05-1.62-.04-.16-.1-.31-.16-.44.11-.42.12-.88.04-1.31-1.61-8.58-2.79-17.88-3.53-27.64l-.02-.28v-.19s-.01,0-.01,0h0s0-.01,0-.01c-1.48-21.06-.93-42.4-.41-63.05.1-4.05.21-8.09.3-12.13.01-.53-.1-1.04-.31-1.44-.22-.43-.53-.67-.84-.67-.63,0-1.13.91-1.15,2.11-.08,3.54-.17,7.09-.25,10.63-.05-.32-.17-.59-.37-.91-1.81-2.91-3.99-5.45-6.66-7.78-2.4-2.09-5.06-3.79-8.13-5.21-4.97-2.28-10.35-3.44-15.99-3.44-1,0-2,.04-3,.11-6.74.46-13.07,2.44-18.82,5.89-2.91,1.74-5.47,3.75-7.83,6.16-1.93,1.97-3.66,4.16-5.15,6.53-.02-1.88-.07-3.77-.13-5.65-.12-3.98-.28-7.97-.46-11.95-.02-.47-.08-1.02-.34-1.48-.21-.39-.51-.62-.81-.62M444.8,458.78c-.01-2.21-.03-4.46-.07-6.74.04,2.27.06,4.51.07,6.74"/>
            <path class="cls-15" d="M442.85,426.64c-.31,0-.67.3-.92.78-.21.43-.31.95-.29,1.47.69,15.23.94,28.65.75,41.03,4.27,4.5,8.2,8.07,12.03,10.94,2.82,2.11,5.44,3.74,8.02,4.99,2.64,1.31,5.3,2.27,7.91,2.86,2,.43,4.01.65,5.96.65h.43s.43-.01.43-.01c2.22-.07,4.5-.41,6.76-1.01,2.57-.73,5.1-1.75,7.51-3.05,2.57-1.37,5.21-3.11,7.85-5.16,1.51-1.19,3.08-2.55,4.65-3.9,1.5-1.29,3-2.6,4.46-3.98,1.48-1.37,2.79-2.7,4-4.03.12-7.39.31-14.84.48-21.42l.08-3.21.11-4.62.11-4.44c.01-.53-.11-1.1-.34-1.53-.24-.45-.56-.71-.89-.71-.65,0-1.17.96-1.21,2.24l-.17,6.96-.08,3.4c0-.21-.1-.44-.28-.73-1.84-2.94-4.03-5.49-6.68-7.78-2.39-2.1-5.05-3.8-8.13-5.22-4.99-2.3-10.37-3.47-16.01-3.47-1,0-2,.04-3,.11-6.77.48-13.11,2.48-18.84,5.94-2.91,1.72-5.47,3.74-7.83,6.16-1.9,1.9-3.63,4.1-5.16,6.53.08-1.69.04-3.45-.02-5.57-.12-3.98-.28-7.97-.46-11.95-.02-.43-.09-1.06-.37-1.57-.22-.42-.54-.67-.86-.67"/>
            <path class="cls-19" d="M486.85,285.93c-1.7,0-3.41.03-5.1.08-3.96.12-8.09.41-12.27.86-8.69.93-17.12,2.51-25.06,4.68-8.5,2.34-16.25,5.35-23.02,8.95-3.86,2.05-7.14,4.15-10.01,6.42-2.99,2.37-5.73,5.23-8.13,8.52-4.2,5.75-7.03,12.78-8.43,20.91-1.19,6.95-1.31,14.39-.38,22.76-.56-.4-1.14-.74-1.7-1.01-2.13-1.04-4.54-1.59-6.97-1.59-.69,0-1.38.05-2.03.13-.83.11-1.57.25-2.25.43-.85.23-1.65.55-2.32.84-1.36.59-2.68,1.46-3.91,2.58-1.18,1.07-2.25,2.4-3.19,3.97-.81,1.35-1.47,2.92-1.99,4.66-.43,1.49-.72,3.16-.86,5.08-.12,1.63-.08,3.32.12,5.16.36,3.38,1.26,6.76,2.68,10.07,1.29,3.01,3.24,6.04,5.78,9.02,2.4,2.81,5.24,5.24,8.43,7.24,2.32,1.46,4.89,2.65,7.66,3.54,2.11.68,4.38,1.15,6.74,1.39.36,7.07,1.82,13.57,4.33,19.31,1.27,2.9,2.83,5.67,4.64,8.25,1.71,2.45,3.76,4.87,6.08,7.2,4.16,4.16,9.34,8.02,15.83,11.8,2.75,1.6,5.79,3.19,9.57,5.02,3.66,1.77,8.02,3.81,12.54,5.61,3.89,1.55,7.46,2.73,10.9,3.6,3.56.91,7.11,1.45,10.54,1.61,0,0,.19.01.19.01.11,0,.22,0,.33.01h0c.1,0,.19-.02.27-.04,3.41-.17,6.91-.71,10.42-1.6,3.44-.87,7.01-2.05,10.9-3.6,4.52-1.8,8.87-3.85,12.54-5.61,3.78-1.82,6.82-3.42,9.57-5.02,6.49-3.78,11.67-7.64,15.83-11.8,2.32-2.32,4.37-4.74,6.08-7.2,1.8-2.58,3.36-5.36,4.64-8.25,2.52-5.75,3.98-12.25,4.35-19.33,2.35-.22,4.61-.69,6.73-1.37,2.76-.89,5.34-2.08,7.66-3.54,3.2-2,6.03-4.44,8.43-7.24,2.54-2.98,4.49-6.01,5.78-9.02,1.42-3.31,2.32-6.69,2.68-10.07.2-1.84.23-3.53.12-5.17-.15-1.92-.43-3.59-.87-5.08-.51-1.74-1.18-3.31-1.99-4.66-.94-1.57-2.01-2.9-3.19-3.97-1.23-1.12-2.55-1.99-3.91-2.58-.67-.29-1.48-.62-2.32-.84-.68-.18-1.42-.32-2.25-.43-.67-.08-1.36-.12-2.03-.12-2.43,0-4.84.55-6.97,1.59-1.52.75-2.88,1.73-4.04,2.94.45-3.7.63-7.56.58-11.78-.03-2.29-.14-4.78-.34-7.63-.17-2.41-.38-4.39-.65-6.22-1.03-6.99-3.47-13.88-7.06-19.93-3.41-5.75-7.92-10.86-13.42-15.19-5.31-4.18-11.47-7.54-18.29-10-6.63-2.37-13.85-3.78-21.48-4.19-2.07-.11-4.19-.16-6.49-.16"/>
            <path class="cls-15" d="M486.85,285.86c-1.7,0-3.41.03-5.1.08-3.93.13-8.05.42-12.27.86-8.67.93-17.11,2.51-25.09,4.7-8.51,2.34-16.26,5.35-23.02,8.95-3.85,2.03-7.13,4.13-10.04,6.42-3.02,2.41-5.76,5.27-8.13,8.52-4.21,5.77-7.05,12.82-8.45,20.95-1.05,6.22-1.27,12.76-.66,19.99.63.37,1.15.63,1.63.82.47.2.95.37,1.45.51.37.1.85.22,1.35.28.36.04.73.07,1.09.08.37,0,.75-.02,1.12-.07.28-.05.58-.1.86-.17.49-.12.82-.23,1.14-.37.39-.17.75-.35,1.1-.55.43-.26.85-.55,1.24-.86.36-.3.71-.62,1.04-.95.61-.63,1.12-1.24,1.57-1.87.53-.74,1-1.47,1.46-2.25.75-1.3,1.41-2.55,2.04-3.85.3-.61.6-1.22.89-1.84l.22-.45.73-1.53c.59-1.21,1.22-2.5,1.89-3.71.71-1.27,1.32-2.27,1.94-3.15,1.44-2.07,3.03-3.82,4.72-5.19,1.79-1.47,3.79-2.77,5.95-3.86,2.18-1.11,4.46-2.03,6.77-2.75,2.32-.71,4.68-1.27,7.01-1.67,2.43-.41,4.91-.69,7.35-.83,1.45-.08,2.94-.12,4.45-.12.86,0,1.72.01,2.57.04,1.77.05,3.53.13,5.3.2,3.15.14,5.95.25,8.76.29.42,0,.94,0,1.46,0,2.51,0,4.7-.08,6.68-.26,1.41-.13,2.68-.29,3.87-.49,1.31-.22,2.52-.48,3.7-.78,1.64-.43,3.1-.91,4.46-1.46,1.48-.6,2.94-1.31,4.36-2.12,1.29-.75,2.58-1.6,3.72-2.46,1.27-.97,2.53-2.04,3.73-3.18.05-.05.12-.07.2-.07.27.07.33.19.35.3.17.98.34,1.84.54,2.63.26.99.53,1.84.84,2.59.31.75.63,1.43,1,2.06.33.56.61.97.91,1.35.33.42.66.8,1.03,1.17.41.4.79.72,1.17,1,.35.26.71.5,1.08.73.64.36,1.25.66,1.89.92.63.25,1.31.48,2.08.7,1.24.34,2.71.63,4.38.85,1.74.24,3.5.4,5.21.55l.3.03c1.09.1,2.19.21,3.28.37,1.12.17,2.04.34,2.89.54,2.05.48,3.77,1.06,5.27,1.78,1.71.82,3.21,1.77,4.47,2.85,1.41,1.2,2.67,2.58,3.74,4.1.63.92,1.16,1.78,1.63,2.63.49.91.94,1.84,1.35,2.76.47,1.08.93,2.16,1.38,3.24.27.64.53,1.27.81,1.91.65,1.53,1.38,3.16,2.28,4.73.67,1.18,1.37,2.15,2.16,2.96.49.47.95.82,1.44,1.11.33.19.69.35,1.09.48.17-2.03.22-4.26.2-6.81-.03-2.29-.15-4.78-.34-7.63-.17-2.41-.38-4.39-.65-6.22-1.05-7.04-3.5-13.94-7.08-19.95-3.39-5.75-7.91-10.86-13.42-15.21-5.34-4.19-11.51-7.55-18.32-9.99-6.66-2.39-13.89-3.81-21.5-4.21-2.03-.11-4.15-.16-6.49-.16"/>
            <path class="cls-15" d="M397.07,398.56c-.43-.46-.84-.94-1.22-1.43,0,0,0,0,0,0-1.08-1.46-1.97-3.04-2.68-4.71-.91-2.21-1.54-4.52-1.86-6.88-.22-1.81-.25-3.62-.04-5.43.19-1.39.55-2.74,1.08-4.04.41-.89.89-1.73,1.46-2.52.12-.16.15-.38.14-.59.09-.32.07-.68-.11-1-.41-.7-.92-1.34-1.46-1.95-.59-.66-1.27-1.25-1.98-1.78-1.53-1.14-3.23-2.02-5.04-2.63-1.35-.46-2.82-.73-4.27-.73-2,0-3.98.51-5.6,1.74-.21.16-.32.42-.17.66.12.21.45.33.66.17.48-.35.98-.64,1.51-.88.56-.22,1.13-.38,1.73-.47.7-.08,1.39-.08,2.08-.02,1.04.13,2.03.39,3.01.76,1.22.49,2.37,1.12,3.44,1.88,1,.76,1.94,1.63,2.74,2.61.37.49.68,1,.98,1.53-1.15,1.8-1.84,3.87-2.12,5.98-.17,1.25-.22,2.5-.15,3.76.06,1.27.25,2.55.51,3.8.52,2.49,1.43,4.9,2.59,7.15,1.07,2.09,2.42,4.06,4.03,5.77.2.21.56.2.77,0,.21-.21.2-.56,0-.77Z"/>
            <path class="cls-15" d="M572.02,366.57c-1.62-1.22-3.6-1.73-5.6-1.73-1.45,0-2.92.27-4.27.73-1.81.61-3.51,1.49-5.04,2.63-.71.53-1.39,1.11-1.98,1.78-.55.6-1.05,1.24-1.46,1.95-.18.31-.21.67-.11,1,0,.21.03.43.14.59.57.79,1.06,1.63,1.46,2.52.53,1.29.89,2.65,1.08,4.04.21,1.81.18,3.62-.04,5.43-.32,2.37-.95,4.68-1.86,6.89-.72,1.66-1.6,3.25-2.68,4.7,0,0,0,0,0,0-.38.5-.79.98-1.22,1.43-.2.21-.21.56,0,.77.21.2.57.21.77,0,1.61-1.71,2.95-3.68,4.03-5.77,1.16-2.26,2.07-4.66,2.59-7.15.26-1.25.45-2.53.51-3.8.07-1.27.01-2.52-.15-3.76-.29-2.11-.97-4.18-2.12-5.98.29-.53.61-1.04.98-1.53.79-.98,1.73-1.85,2.74-2.61,1.07-.76,2.22-1.38,3.44-1.88.98-.37,1.97-.63,3.01-.76.7-.07,1.39-.07,2.08.01.6.1,1.17.25,1.73.47.54.24,1.04.53,1.51.88.21.16.54.04.66-.17.15-.24.04-.5-.17-.66Z"/>
            <path class="cls-20" d="M476.5,284.47c-1.3,0-2.59.01-3.88.05-8.36.22-16.53,1.14-24.29,2.75-8.09,1.66-15.78,4.16-22.85,7.41-7.32,3.37-13.97,7.68-19.75,12.81-4.81,4.28-9.03,9.27-12.56,14.84-1.79,2.82-3.43,5.9-4.87,9.15-.93,2.1-1.68,4.03-2.27,5.91-.67,2.1-1.13,4.31-1.38,6.57-.03.22.06.49.22.7.88,3.97,2.27,7.79,4.13,11.36.99,1.91,2.08,3.64,3.23,5.14.63.82,1.31,1.59,1.96,2.32.67.74,1.34,1.42,2.01,2.02.5.46,1.03.87,1.56,1.21.61.4,1.11.64,1.61.79.44.13.86.2,1.31.2h.27c.47-.04.97-.21,1.51-.53.97-.57,1.59-1.54,2.1-2.41.7-1.2,1.17-2.5,1.67-3.95.99-2.85,1.92-5.97,2.91-9.82.32-1.25.64-2.52.95-3.77.46-1.84.91-3.68,1.41-5.51,0,0,0,0,0,0h0c1-3.64,2.45-8.37,4.92-12.59,1.19-1.98,2.59-3.8,4.17-5.41l.11-.13h-.01c1.59-1.5,3.4-2.87,5.4-4.05,1.21-.69,2.35-1.24,3.48-1.68,1-.39,2.05-.74,3.21-1.06,0,0,.1-.03.1-.04,0,0,.08-.04.08-.04,4.96-1.27,10.11-1.64,14.49-1.83,4.12-.18,8.31-.19,12.36-.21,1.45,0,2.91-.01,4.37-.02,5.03-.04,10.89-.14,16.65-.81,5.95-.69,10.61-1.86,14.69-3.69,1.6-.72,3.15-1.59,4.59-2.59,1.41-.98,2.76-2.16,4-3.52.9-.98,1.73-2.09,2.47-3.29-.12,1.22-.12,2.41-.04,3.53.22,2.74,1.01,5.1,2.35,7.01,2.74,3.89,7.35,5.67,11.83,7.16.92.3,1.84.6,2.77.89,2.4.76,4.89,1.55,7.26,2.55,2.56,1.11,4.62,2.29,6.4,3.65,1.28,1.02,2.45,2.19,3.46,3.48,1.1,1.45,2.02,3.05,2.73,4.74l-.03-.15c.76,1.96,1.29,4.07,1.59,6.44.33,2.98.29,6.03.26,8.97-.02,1.75-.04,3.57.01,5.35.07,2.6.36,5.08.86,7.38.22,1,.47,1.87.79,2.64.15.37.3.72.48,1.06.18.35.42.65.65.94.33.42.8.75,1.34.95.26.1.55.14.85.14.24,0,.48-.03.73-.09.57-.14,1.07-.49,1.43-.78.4-.32.78-.71,1.2-1.24.8-1.02,1.52-2.24,2.27-3.82.67-1.42,1.27-2.94,1.82-4.64,1.2-3.68,2.01-7.78,2.39-12.18.35-4.01.22-8.22-.38-12.52-1.15-8.12-4.26-15.89-8.98-22.47-2.39-3.33-5.2-6.35-8.34-8.98-1.58-1.32-3.29-2.57-5.09-3.71-1.7-1.09-3.61-2.12-5.83-3.16-4.65-2.18-9.67-3.97-14.91-5.32-4.56-1.18-9.55-2.07-15.24-2.74-5.73-.67-11.44-.97-15.77-1.16-3.37-.14-6.2-.21-8.89-.21"/>
            <path class="cls-17" d="M508.07,295.86c-.12.07-.24.14-.36.21-.23.18-.4.4-.52.67-.16.33-.35.65-.53.97-.77,1.32-1.61,2.6-2.53,3.83-1,1.33-2.09,2.58-3.26,3.76-2.61,2.56-5.55,4.75-8.7,6.57,0,0,0,0,0,0-2.79,1.56-5.76,2.84-8.83,3.7-3.98,1.05-8.11,1.33-12.21,1.37h.24c-3.5.03-7.01-.15-10.51-.35-3.61-.21-7.2-.47-10.8-.65-3.47-.18-6.94-.27-10.41-.14-3.21.11-6.43.44-9.56,1.18-3.52.84-6.91,2.28-9.72,4.58-.16.13-.2.36-.07.53.12.16.37.2.53.07.84-.69,1.73-1.3,2.67-1.84,0,0-.02,0-.02.01,1.76-.99,3.65-1.72,5.6-2.25-.03,0-.07.02-.1.02,3.72-1,7.58-1.32,11.43-1.36-.03,0-.06,0-.09,0,7.1-.06,14.18.79,21.24,1.43,3.46.31,6.94.56,10.42.63,3.19.07,6.42-.03,9.57-.53,1.21-.2,2.4-.47,3.59-.79,1.46-.4,2.91-.85,4.33-1.37,2.94-1.08,5.77-2.48,8.41-4.17,2.65-1.69,5.03-3.76,7.13-6.09,1.01-1.11,1.92-2.3,2.76-3.55.46-.69.88-1.41,1.29-2.13.41-.73.77-1.49,1.13-2.25.37-.79-.12-1.76-.89-2.07-.19-.08-.39-.11-.6-.11s-.41.04-.6.12M506.85,297.37l-.19.33c.06-.11.12-.22.19-.33M440.26,316.75h.03-.03Z"/>
            <path class="cls-25" d="M503.86,297.44c-.33.28-.49.64-.55,1.06-.28,1.78-.27,3.6-.08,5.39.17,1.61.6,3.2,1.19,4.71.57,1.43,1.37,2.78,2.27,4.03.89,1.25,1.97,2.36,3.11,3.39,2.27,2.07,4.88,3.67,7.6,5.07,2.71,1.39,5.52,2.54,8.35,3.65,2.17.85,4.37,1.68,6.46,2.73,1.17.61,2.31,1.27,3.39,2.01,1.05.71,2.05,1.52,2.99,2.37,1.59,1.5,2.97,3.18,4.14,5.03-.03-.05-.07-.11-.09-.16,1.55,2.49,2.71,5.19,3.56,8-.01-.04-.02-.08-.04-.11.64,2.13,1.1,4.3,1.43,6.5.08.49.82.36.75-.12-.51-3.42-1.21-6.83-2.35-10.11-1.04-2.99-2.5-5.82-4.39-8.38-1.95-2.64-4.4-4.91-7.1-6.77-1.5-1.02-3.09-1.88-4.7-2.69-1.34-.68-2.7-1.34-4.05-2.01-1.41-.69-2.82-1.38-4.22-2.1.02,0,.03.02.05.02-.02-.01-.04-.02-.06-.03l-.38-.19s.09.04.14.07c-3.24-1.69-6.44-3.56-9.17-6.01-1.17-1.11-2.22-2.33-3.11-3.69-.76-1.26-1.35-2.61-1.8-4.01-.46-1.64-.7-3.31-.77-5.01,0-.43-.01-.87-.02-1.3,0-.43-.07-.8-.36-1.14-.26-.31-.64-.52-1.05-.56-.04,0-.09,0-.13,0-.36,0-.72.13-1.01.36M507.26,305.29v.03s0-.03,0-.03ZM521.52,318.92s0,0,.02,0c-.08-.05-.17-.09-.25-.13l.24.12Z"/>
            <path class="cls-23" d="M503.79,279.34c-1.51,2.27-3.24,4.33-5.18,6.1l.09-.08c-2.07,1.85-4.33,3.37-6.74,4.56.05-.02.09-.04.14-.06-3.61,1.76-7.42,2.8-11.29,3.41.07-.01.13-.02.2-.03-6.08.94-12.22.99-18.34.93-3.16-.03-6.32-.08-9.47-.07-3.13,0-6.25.08-9.36.37-3.08.28-6.17.74-9.2,1.51-2.97.76-5.86,1.84-8.64,3.29-2.81,1.47-5.42,3.41-7.8,5.69-1.22,1.18-2.36,2.47-3.43,3.84-1.17,1.51-2.24,3.13-3.17,4.85-2.07,3.88-3.32,8.29-4.42,12.64-1.1,4.36-2.04,8.78-3.53,12.99-.82,2.24-1.8,4.41-3.07,6.36.05-.08.1-.15.15-.22-.73,1.11-1.56,2.13-2.49,3.01-.1.09-.19.17-.29.25-.27.22-.47.46-.55.85-.09.36-.04.75.12,1.08.37.75,1.36.96,1.89.28.74-.96,1.46-1.94,2.13-2.97.69-1.06,1.31-2.18,1.88-3.33,1.14-2.3,2.02-4.76,2.82-7.25,1.68-5.21,2.89-10.62,4.75-15.76l-.12.33c1.02-2.78,2.22-5.46,3.77-7.89,1.8-2.69,3.9-5.1,6.2-7.2-.1.09-.2.18-.3.26,2.51-2.26,5.27-4.11,8.19-5.56,4.18-2,8.6-3.2,13.06-3.9-.11.01-.22.04-.34.05,3.08-.48,6.19-.76,9.29-.94,3.16-.19,6.31-.23,9.47-.29,6.18-.11,12.38-.15,18.52-1.07,4.85-.72,9.68-2.06,14.12-4.5,2.19-1.21,4.24-2.7,6.15-4.44,2.02-1.86,3.82-4.03,5.4-6.4.14-.21.18-.49,0-.69-.08-.09-.2-.15-.32-.15-.11,0-.21.04-.28.15M398.21,348.45"/>
            <path class="cls-26" d="M512.97,283.7c-.22.12-.28.4-.2.65.73,2.44,1.79,4.72,3.1,6.81,1.31,2.1,2.88,3.96,4.56,5.66,1.75,1.79,3.64,3.39,5.56,4.88,2.01,1.54,4.04,3.04,6.11,4.47,3,2.08,5.98,4.16,8.93,6.32,2.78,2.04,5.51,4.21,7.97,6.76,1.55,1.67,2.95,3.53,4.1,5.59.8,1.54,1.45,3.17,1.94,4.87.51,2,.8,4.06.9,6.14.07,2.14-.07,4.26-.27,6.38-.08.9.43,1.79,1.15,2.08.43.18.9.15,1.31-.07.39-.21.8-.66.91-1.17.71-3.28.95-6.64.68-10.01-.11-1.34-.33-2.67-.65-3.97-.34-1.38-.76-2.72-1.3-4.02-2.04-4.88-5.49-8.73-9.26-11.8-1.41-1.15-2.89-2.17-4.4-3.14-1.63-1.05-3.29-2.03-4.98-2.95-3.28-1.79-6.6-3.49-9.83-5.41.07.04.13.08.2.12-3.55-2.12-7.02-4.57-9.99-7.7.01.01.03.03.04.04-1.54-1.66-2.93-3.49-4.07-5.55,0,0,0,0,0,0-.81-1.5-1.47-3.09-1.97-4.76-.05-.18-.22-.28-.38-.28-.06,0-.12.01-.17.04M515.43,288.59s.02.04.03.06c-.01-.02-.02-.04-.03-.06M519.63,294.32s-.04-.05-.07-.07c.02.02.04.05.07.07"/>
            <path class="cls-24" d="M494.82,277.17c-1.54,1.38-3.19,2.54-4.94,3.5.04-.02.08-.04.12-.06-1.46.8-2.95,1.49-4.5,2.03-1.52.54-3.06.96-4.62,1.3.02,0,.03,0,.05,0-.03,0-.06.01-.08.02l-.15.03s.04,0,.06-.01c-2.02.4-4.07.63-6.12.74-1.08.06-2.17.11-3.25.1-1.06,0-2.12-.07-3.19-.16.12,0,.24.02.36.03-1.39-.13-2.76-.35-4.13-.63-.77-.16-1.53.38-1.7,1.3-.15.87.34,1.83,1.11,1.98,2.68.54,5.42.66,8.14.52,2.83-.15,5.62-.7,8.36-1.55,1.37-.42,2.71-.91,4.04-1.47,1.31-.55,2.61-1.2,3.87-1.88,2.48-1.33,4.85-3.01,7.02-4.96.18-.16.25-.43.12-.67-.07-.14-.22-.23-.37-.23-.07,0-.15.02-.21.08M480.75,283.97s.06-.01.09-.02c.01,0,.02,0,.04,0-.04,0-.08.02-.13.03"/>
            <path class="cls-15" d="M474.72,394.29c-.26-.26-.7-.49-1.09-.45-1.5.16-3.01.24-4.51.09-.73-.11-1.43-.29-2.12-.55-.48-.22-.93-.48-1.36-.79-.43-.35-.81-.74-1.16-1.17-.37-.52-.68-1.08-.96-1.65.54-.39.92-1.02.89-1.72-.05-1.35.01-2.7.16-4.04.31-2.1.83-4.17,1.3-6.24.48-2.15.86-4.32,1.07-6.52.02-.18.03-.37.05-.56.38-.39.62-.93.63-1.51.02-1.12-.02-2.26-.07-3.38-.06-1.36-.15-2.71-.27-4.06-.27-3.17-.7-6.33-1.4-9.44-.67-3.01-1.68-5.99-3.18-8.7-.7-1.27-1.56-2.47-2.55-3.53-.41-.44-.85-.85-1.33-1.21-.61-.48-1.22-.92-1.92-1.25-.29-.14-.6-.25-.9-.37-.18-.05-.36-.07-.54-.07s-.36.02-.54.07c-.35.1-.65.27-.9.52-.08.08-.15.16-.21.25-.21-.11-.45-.17-.69-.17-.39,0-.76.15-1.03.43-.49.48-.52,1.17-.23,1.76.04.08.08.16.11.23-.16.15-.22.42-.09.6.12.16.23.32.35.48-.53-.35-1.07-.69-1.65-.96-.42-.19-.91-.12-1.15.3-.15.25-.13.51-.03.74-2.32-.89-4.77-1.25-7.23-1.25-1.77,0-3.55.18-5.28.48-.21.03-.33.3-.28.49.07.23.28.31.49.28.41-.07.82-.14,1.24-.2l-.11.02c2.09-.27,4.2-.31,6.29-.03,1.5.22,2.96.6,4.35,1.19.17.08.33.17.49.25-1.39.19-2.79.22-4.2.16-2.96-.19-5.9-.54-8.86-.6-2.41-.05-4.83.19-7.16.8-4.51,1.19-8.17,4.45-11.22,7.83-.38.43-.33,1.13.11,1.5.44.38,1.12.33,1.5-.11.78-.87,1.6-1.7,2.46-2.5,1.22-1.08,2.55-2.04,4-2.79,1.26-.61,2.6-1.06,3.97-1.37,1.73-.34,3.48-.42,5.23-.32,1.52.12,3.01.36,4.51.64,1.79.34,3.57.72,5.38.93,1.76.21,3.56.28,5.32.06.88-.11,1.75-.31,2.6-.56,1.04,1.16,1.92,2.44,2.68,3.79,1.5,2.85,2.52,5.91,3.28,9.04.47,2.01.79,4.04,1,6.09.06.57.08,1.13.12,1.7-.01,2.61-.19,5.21-.53,7.8-.17,1.12-.37,2.24-.54,3.36-.24,1.47-.4,2.97-.45,4.46-.05,1.44.05,2.88.24,4.31.17,1.27.46,2.53.93,3.72.24.62.52,1.23.84,1.81.34.61.76,1.17,1.2,1.7.37.45.79.85,1.24,1.2.55.44,1.12.82,1.75,1.14,2.89,1.43,6.26,1.35,9.28.4.66-.21,1.13-.78,1.13-1.48,0-.41-.17-.8-.45-1.09Z"/>
            <path class="cls-15" d="M494.18,335.52c-.78.37-1.16,1.2-1.03,2.03.12.84.37,1.66.82,2.38.27.45.56.87.91,1.25.34.38.75.73,1.15,1.06.75.6,1.65,1.04,2.53,1.4.85.35,1.75.54,2.65.72,2.92.59,5.93.19,8.89-.05,3.78.32,7.58.41,11.31,1.19-.07-.02-.14-.03-.21-.05.82.18,1.63.39,2.43.64.67.27,1.33.56,1.98.89.85.45,1.67.94,2.47,1.48.9.62,1.73,1.34,2.58,2.02.3.24.76.19,1.04-.04.34-.28.44-.88.11-1.21-.89-.99-1.98-1.83-3.06-2.59-1.13-.8-2.35-1.46-3.6-2.06-2.46-1.17-5.11-1.88-7.77-2.46-1.3-.28-2.6-.57-3.91-.76-1.38-.2-2.75-.4-4.13-.6-2.08-.3-4.19-.48-6.25-.88-1.15-.26-2.29-.6-3.36-1.1-.65-.37-1.24-.79-1.81-1.28-.51-.49-1.01-.99-1.49-1.5-.39-.42-.91-.67-1.45-.67-.26,0-.52.06-.78.18M511.02,344.25s-.03,0-.05,0c0,0,.02,0,.02,0h.02Z"/>
            <path class="cls-22" d="M453.8,335.36c-.21,0-.4.11-.49.28-.08.12-.1.28-.06.43.04.15.14.27.27.35.94.53,1.86,1.14,2.72,1.8,1.47,1.15,2.86,2.54,4.11,4.12,1.41,1.84,2.61,3.91,3.57,6.17,1.23,2.98,2.08,6.23,2.59,9.96.26,2.01.41,4.13.42,6.3,0,1-.02,2-.07,3-.04.88-.1,1.82-.21,2.76-.01.1-.02.16-.03.23l.09-.18c-.25,1.32-.59,2.62-.93,3.82-.23.82-.47,1.63-.72,2.44-.19.63-.37,1.25-.55,1.88-.48,1.67-.83,3.07-1.08,4.42-.3,1.67-.4,3.03-.31,4.29.1,1.43.46,2.74,1.09,3.88.62,1.12,1.62,2.08,2.97,2.87.58.33,1.26.64,2.16.95.66.23,1.41.42,2.3.57.75.12,1.48.18,2.17.18.93,0,1.78-.12,2.54-.34.63-.19,1-.84.83-1.47-.14-.51-.62-.87-1.16-.87-.11,0-.21.01-.31.04-.25.06-.48.11-.74.15-.41.05-.83.07-1.24.07-.5,0-.99-.03-1.48-.09-1.01-.15-1.94-.39-2.86-.74-.67-.29-1.23-.61-1.71-.96-.32-.26-.62-.57-.93-.94-.26-.37-.48-.75-.68-1.19-.2-.51-.34-1.07-.44-1.7-.15-1.17-.12-2.46.08-4.04.35-2.35.92-4.54,1.48-6.65.28-1.05.56-2.1.8-3.14.17-.7.31-1.43.43-2.14.11-.68.18-1.42.24-2.33.09-1.53.11-3.16.07-4.96-.21-7.48-1.92-14.05-5.09-19.52-1.14-1.98-2.51-3.79-4.08-5.4-1.57-1.61-3.42-3.03-5.5-4.21-.1-.05-.19-.08-.28-.08"/>
            <path class="cls-21" d="M448.6,377.07c-.75.77-1.54,1.48-2.4,2.13-1.26.9-2.62,1.64-4.06,2.23l.1-.03s-.08.03-.12.05c-.04.02-.08.03-.12.05.02-.01.05-.02.07-.03-1.35.5-2.74.84-4.17,1.02-1.5.15-3,.12-4.49-.1-1.29-.23-2.55-.6-3.76-1.11-1.39-.64-2.67-1.45-3.87-2.4-.32-.27-.63-.55-.94-.83-.3-.28-.65-.47-1.07-.48-.39,0-.78.14-1.06.41-.57.53-.67,1.57-.07,2.14,1.01.94,2.09,1.78,3.26,2.49,1.11.67,2.32,1.21,3.55,1.63,2.31.79,4.82,1.04,7.25.8,5.03-.5,9.61-3.1,13.08-6.7.33-.34.38-.86.04-1.22-.16-.18-.41-.27-.65-.27-.21,0-.42.07-.57.23M442.07,381.46l.05-.02s.02,0,.03-.01c-.02,0-.05.02-.08.03"/>
            <path class="cls-58" d="M446.88,331.4c-1.6,0-3.29.18-5.16.55-1.57.3-3.21.72-4.85,1.25-2.17.71-4.35,1.67-6.47,2.87-2.2,1.24-4.25,2.7-6.09,4.35-1.81,1.63-3.38,3.46-4.66,5.44-1.3,2.01-2.23,4.2-2.77,6.52-.2.37-.12.75.18.95.11.07.23.11.36.11.23,0,.43-.11.56-.3.45-.69.94-1.34,1.5-1.99,1.16-1.29,2.54-2.48,4.09-3.53,2.3-1.5,4.98-2.77,8.17-3.87h0c1.64-.53,3.45-.85,5.87-1.03,1.36-.08,2.73-.12,4.09-.14.68-.02,1.36-.03,2.05-.05,1.88-.06,3.9-.16,5.89-.55,2.09-.4,3.86-1.12,5.27-2.16.3-.22.6-.51.87-.85.21-.26.37-.54.53-.92.11-.25.18-.57.19-.96.02-.43-.1-.8-.24-1.22-.11-.33-.32-.62-.53-.9-.29-.42-.63-.72-.92-.97-.35-.31-.74-.61-1.23-.94-.43-.29-.88-.51-1.3-.7-.8-.37-1.65-.57-2.31-.7-.81-.16-1.71-.25-2.75-.27h-.17s-.17,0-.17,0Z"/>
            <path class="cls-59" d="M501.1,375.22c.75.77,1.54,1.48,2.4,2.13,1.26.9,2.62,1.64,4.06,2.23-.03-.01-.06-.02-.1-.03.04.02.08.03.13.05.04.02.08.03.12.05-.02-.01-.05-.02-.07-.03,1.35.5,2.74.84,4.17,1.02,1.5.15,3,.12,4.49-.1,1.29-.23,2.55-.6,3.76-1.11,1.39-.64,2.67-1.44,3.87-2.4.32-.27.63-.55.94-.84.3-.28.65-.47,1.07-.48.39,0,.78.14,1.06.41.57.53.67,1.57.07,2.14-1.01.94-2.09,1.78-3.26,2.49-1.11.67-2.32,1.21-3.55,1.63-2.31.79-4.82,1.04-7.25.8-5.03-.5-9.61-3.1-13.08-6.7-.33-.34-.38-.86-.04-1.22.16-.18.41-.27.65-.27.21,0,.42.07.57.23M507.64,379.6s-.03-.01-.05-.02c-.01,0-.02,0-.03-.01.03.01.05.02.08.03"/>
            <path class="cls-60" d="M502.83,329.55c1.6,0,3.29.18,5.16.54,1.57.3,3.21.72,4.85,1.26,2.17.71,4.35,1.67,6.47,2.87,2.2,1.24,4.25,2.7,6.09,4.35,1.81,1.63,3.38,3.46,4.66,5.44,1.3,2.01,2.23,4.2,2.77,6.52.2.37.12.75-.18.95-.11.07-.23.11-.36.11-.23,0-.43-.11-.56-.3-.46-.69-.95-1.34-1.5-1.99-1.16-1.29-2.53-2.48-4.09-3.53-2.3-1.5-4.98-2.77-8.17-3.87h0c-1.64-.53-3.45-.85-5.87-1.03-1.36-.08-2.73-.12-4.09-.14-.68-.02-1.36-.03-2.05-.05-1.88-.06-3.9-.16-5.89-.55-2.09-.4-3.86-1.12-5.27-2.16-.3-.22-.6-.51-.87-.85-.21-.26-.37-.54-.53-.92-.11-.25-.18-.57-.19-.96-.02-.43.1-.8.24-1.22.11-.33.32-.62.53-.9.29-.42.63-.72.92-.97.35-.31.74-.61,1.23-.94.43-.29.88-.51,1.3-.7.8-.37,1.65-.57,2.31-.7.81-.16,1.71-.25,2.75-.27h.17s.17,0,.17,0Z"/>
            <path class="cls-57" d="M495.68,398.98c-.35,0-.67.31-.67.67,0,1.11-.06,2.12-.18,3.09-.22,1.71-.66,3.35-1.3,4.88-.58,1.33-1.32,2.59-2.2,3.75-.9,1.12-1.91,2.13-3,2.99-1.2.91-2.55,1.7-4.01,2.34-1.55.63-3.16,1.07-4.77,1.31,0,0-.11.02-.11.03,0,0-.1.03-.1.03-.72.05-1.57.1-2.41.1s-1.76-.06-2.62-.18c-1.51-.22-2.99-.63-4.41-1.22-1.26-.56-2.44-1.25-3.48-2.05-1.01-.8-1.93-1.71-2.73-2.73-.85-1.1-1.57-2.33-2.14-3.65-.67-1.61-1.13-3.36-1.38-5.19l-.05-.39c-.02-.2-.06-.34-.19-.47-.13-.13-.3-.2-.47-.2-.19,0-.38.09-.52.25-.11.12-.17.27-.15.42.17,1.45.42,2.77.79,4.03.34,1.18.81,2.35,1.39,3.47,1.02,2.01,2.48,3.84,4.22,5.29,1.63,1.37,3.54,2.43,5.68,3.16,1.96.67,4.08,1.01,6.32,1.01,2.17-.01,4.41-.38,6.48-1.08.99-.33,2.02-.77,3.03-1.31.9-.47,1.81-1.06,2.78-1.82,1.73-1.34,3.24-3.08,4.38-5.04,1.2-2.05,1.98-4.38,2.32-6.9.17-1.31.23-2.63.17-3.94-.02-.38-.31-.67-.67-.67"/>
          </g>
        </g>
      </g>
    </g>
  </g>
</svg>